<svg xmlns="http://www.w3.org/2000/svg" version="1.1" viewBox="0 0 100 100" preserveAspectRatio="none" class="css-1aadux1"><polyline points=" 0,86.12724908787874 0.6666666666666666,100 1.3333333333333333,91.64065985463941 2,87.75588776111422 2.6666666666666665,88.10417114044328 3.333333333333333,87.16512345402735 4,87.32593742968412 4.666666666666666,93.2761588718658 5.333333333333333,92.75919374517746 6,93.0617683673547 6.666666666666666,98.29257467425461 7.333333333333333,95.80049350360372 8,92.00671240416939 8.666666666666666,89.9765752861525 9.333333333333332,90.4819047448392 10,87.43548209427169 10.666666666666666,90.22619116422266 11.333333333333332,85.40498654483702 12,86.01423057391081 12.666666666666666,83.70609826228858 13.333333333333332,84.50406746131321 14,85.61358364000809 14.666666666666666,87.71174113455949 15.333333333333332,86.04758804186001 16,83.26247209193733 16.666666666666664,84.41325632616082 17.333333333333332,84.59958331286957 18,85.00205419799536 18.666666666666664,83.55939195311944 19.333333333333332,82.99424653827835 20,83.39248737212566 20.666666666666664,83.94683715839054 21.333333333333332,82.35619588535087 22,82.89675563913949 22.666666666666664,85.42083396473419 23.333333333333332,81.8213329187869 24,82.5998520561813 24.666666666666664,82.74252475066044 25.333333333333332,84.49913555071085 26,84.86384219319065 26.666666666666664,84.02212748151585 27.333333333333332,81.2570974129865 28,83.11908222534679 28.666666666666664,77.94728024795032 29.333333333333332,82.08125950765277 30,83.75798477397808 30.666666666666664,82.60686834795848 31.333333333333332,79.62603375522627 32,79.50212059839444 32.666666666666664,80.8083396951254 33.33333333333333,75.87315238470649 34,77.89534758742494 34.666666666666664,77.66457315663692 35.33333333333333,79.38633946229943 36,81.57907649611121 36.666666666666664,79.9661334911294 37.33333333333333,79.17053698216279 38,78.124101326658 38.666666666666664,82.46279664139085 39.33333333333333,81.59670523636947 40,83.41447884955532 40.666666666666664,84.19087906179928 41.33333333333333,84.7071173374582 42,79.60788159081005 42.666666666666664,74.32027502217838 43.33333333333333,67.08580479992749 44,58.427099322273314 44.666666666666664,55.22368947932198 45.33333333333333,62.13325204826172 46,57.3638975094582 46.666666666666664,57.381878430216275 47.33333333333333,55.53564590268049 48,53.93604055503567 48.666666666666664,56.66458903046119 49.33333333333333,50.6097918443374 50,48.409415500121774 50.666666666666664,55.30772158346884 51.33333333333333,54.154989415429824 52,51.64255516534885 52.666666666666664,55.15433940188812 53.33333333333333,53.011135790914594 54,50.85726431683962 54.666666666666664,52.175426157742876 55.33333333333333,50.982419843242006 56,52.49447880840221 56.666666666666664,54.52948363772603 57.33333333333333,54.512505304510114 58,58.740525797192724 58.666666666666664,57.75475883016596 59.33333333333333,56.953170314365245 60,56.23096242936814 60.666666666666664,54.78050386924794 61.33333333333333,53.78853907593627 62,53.773933802705166 62.666666666666664,54.233257738687605 63.33333333333333,54.943029415529764 64,53.535879652447285 64.66666666666666,55.93474012662007 65.33333333333333,51.66400298622012 66,53.25216861916669 66.66666666666666,54.12462295444668 67.33333333333333,48.79636578776453 68,50.52304949244504 68.66666666666666,44.24535870261283 69.33333333333333,40.71316802883239 70,49.4675679226654 70.66666666666666,44.72473847641737 71.33333333333333,51.59612199883267 72,47.24012538600222 72.66666666666666,36.11087776329085 73.33333333333333,61.66407763813296 74,60.88690647776439 74.66666666666666,64.82720141080992 75.33333333333333,52.12425646545853 76,41.98040185176224 76.66666666666666,44.04885536437855 77.33333333333333,28.71808355087265 78,26.7032805637935 78.66666666666666,28.272555100100718 79.33333333333333,30.325336656353343 80,30.213524484060045 80.66666666666666,28.81077563208595 81.33333333333333,32.35665903831921 82,13.147214575348627 82.66666666666666,0 83.33333333333333,5.4849800109303 84,11.067910836388734 84.66666666666666,16.064484347543086 85.33333333333333,4.815620171619727 86,3.2697138921273563 86.66666666666666,20.92715254508171 87.33333333333333,23.918982511365314 88,24.64740420238566 88.66666666666666,18.07476130546263 89.33333333333333,20.231053494940383 90,30.901310895081053 90.66666666666666,40.03377285120069 91.33333333333333,32.26708285402255 92,24.29665494677438 92.66666666666666,20.054917945861902 93.33333333333333,14.695574873903723 94,10.207573117898576 94.66666666666666,15.588202730401903 95.33333333333333,17.22718088462028 96,21.75814226551165 96.66666666666666,16.886127665970193 97.33333333333333,14.343035464274521 98,16.243542853709855 98.66666666666666,17.790028088599996 99.33333333333333,19.793166626261225 100,24.23083316856595" stroke="#00A68C" stroke-linecap="round" stroke-width="1.4" fill="none" vector-effect="non-scaling-stroke"></polyline></svg>