<svg xmlns="http://www.w3.org/2000/svg" version="1.1" viewBox="0 0 100 100" preserveAspectRatio="none" class="css-1aadux1"><polyline points=" 0,96.98793469047675 0.6666666666666666,99.91546948759003 1.3333333333333333,97.08601748352682 2,96.49598473126835 2.6666666666666665,96.71542095306265 3.333333333333333,97.97895641712807 4,97.3384085635206 4.666666666666666,99.18704203151367 5.333333333333333,99.60858172893066 6,99.45540862610984 6.666666666666666,100 7.333333333333333,99.3056751954365 8,98.12352689635269 8.666666666666666,97.37118183877581 9.333333333333332,97.80343811434335 10,97.0044144815958 10.666666666666666,97.59028281172654 11.333333333333332,96.36464429864185 12,97.00409278917333 12.666666666666666,96.75646835987395 13.333333333333332,96.4478313194045 14,96.71784987285352 14.666666666666666,96.6996329287318 15.333333333333332,96.37158707929397 16,93.69899430661249 16.666666666666664,94.52966604266051 17.333333333333332,94.12306164053693 18,93.99623248358724 18.666666666666664,92.75966122116253 19.333333333333332,93.26096280271847 20,94.38245844565027 20.666666666666664,93.03592314320353 21.333333333333332,93.1733538038072 22,93.05470527906938 22.666666666666664,92.87822681330707 23.333333333333332,92.6475831043477 24,92.40147272027384 24.666666666666664,92.12244464440532 25.333333333333332,93.27804696472928 26,93.21591597803874 26.666666666666664,92.75384513928306 27.333333333333332,92.84604715538273 28,93.10647884681616 28.666666666666664,91.96392013125042 29.333333333333332,93.33708367738816 30,94.57252060579364 30.666666666666664,93.7639727105047 31.333333333333332,92.42980363372405 32,91.67529115350149 32.666666666666664,91.99832677767107 33.33333333333333,92.56198524566577 34,93.09112502317822 34.666666666666664,93.90763868472844 35.33333333333333,94.74766710964778 36,94.13849768455084 36.666666666666664,94.01178933621622 37.33333333333333,93.61403470475997 38,94.1369447311725 38.666666666666664,95.58009011753016 39.33333333333333,95.96145907762295 40,96.77447960202583 40.666666666666664,96.73893755112367 41.33333333333333,96.94161530287582 42,94.65272961003566 42.666666666666664,93.64171066132809 43.33333333333333,85.34097214886808 44,78.846341839623 44.666666666666664,78.15813607724499 45.33333333333333,76.06281504672302 46,69.32002564469776 46.666666666666664,69.52603894468834 47.33333333333333,69.50446698780245 48,70.1764284445674 48.666666666666664,70.22936985055564 49.33333333333333,59.88235670048965 50,55.523254139985276 50.666666666666664,60.458941879923636 51.33333333333333,59.21253537517918 52,56.299912402985356 52.666666666666664,57.79797584168593 53.33333333333333,54.83910086701575 54,52.28868878116287 54.666666666666664,53.78902292825499 55.33333333333333,53.834995902968984 56,51.98450164382308 56.666666666666664,51.76279360369569 57.33333333333333,50.08665703148715 58,50.93316138288545 58.666666666666664,49.05865641422338 59.33333333333333,49.486610798555084 60,47.93544483176222 60.666666666666664,50.403190624289756 61.33333333333333,52.23523108577867 62,50.22439678846987 62.666666666666664,50.232632640019574 63.33333333333333,50.76164867789545 64,50.7491047282313 64.66666666666666,50.66127188683637 65.33333333333333,49.53087353983694 66,49.21912882811657 66.66666666666666,48.65557291411439 67.33333333333333,40.6076262166697 68,31.99298187875661 68.66666666666666,33.569776862673635 69.33333333333333,31.310707958356005 70,31.880102867085654 70.66666666666666,23.932539194087326 71.33333333333333,23.452314971593864 72,18.166313136631203 72.66666666666666,7.612133730435815 73.33333333333333,20.36679719070851 74,17.04561949329691 74.66666666666666,25.93598829517697 75.33333333333333,22.534839738402084 76,15.112259003547706 76.66666666666666,6.284408833656258 77.33333333333333,12.98292849539287 78,15.199323530208105 78.66666666666666,12.29635718750427 79.33333333333333,13.664461557462786 80,9.253133927088967 80.66666666666666,1.364331067651733 81.33333333333333,4.306360680553013 82,5.077412818243914 82.66666666666666,5.740204399200266 83.33333333333333,4.9458930033421495 84,2.7072655201994564 84.66666666666666,4.179763409960515 85.33333333333333,1.1599213874628163 86,0 86.66666666666666,8.790543638730924 87.33333333333333,20.184726432414095 88,21.19777225323614 88.66666666666666,15.788217412957778 89.33333333333333,9.702553486716099 90,15.156845011455076 90.66666666666666,16.414597167150973 91.33333333333333,16.209717096332454 92,14.4136931935073 92.66666666666666,18.662457839349244 93.33333333333333,18.48444269844164 94,15.756607508406958 94.66666666666666,15.824161156280041 95.33333333333333,13.836355383764513 96,13.901445054480902 96.66666666666666,9.319557933359064 97.33333333333333,9.073335012087071 98,10.591494866045466 98.66666666666666,6.217130474633748 99.33333333333333,6.144769546874272 100,11.72940576998377" stroke="#00A68C" stroke-linecap="round" stroke-width="1.4" fill="none" vector-effect="non-scaling-stroke"></polyline></svg>