<svg xmlns="http://www.w3.org/2000/svg" version="1.1" viewBox="0 0 100 100" preserveAspectRatio="none" class="css-1aadux1"><polyline points=" 0,85.35831315857276 0.6666666666666666,100 1.3333333333333333,92.66790221086393 2,89.94487766714663 2.6666666666666665,89.03924501807812 3.333333333333333,88.45517014930465 4,87.57269059393343 4.666666666666666,90.94213043057111 5.333333333333333,88.36517803653719 6,88.37966558681157 6.666666666666666,92.91962126460176 7.333333333333333,87.13798904652312 8,82.55932039606904 8.666666666666666,79.72616391054275 9.333333333333332,81.05000752526337 10,80.74804926823164 10.666666666666666,79.6734551976999 11.333333333333332,76.90665796785194 12,77.44131947213207 12.666666666666666,77.39701425003116 13.333333333333332,78.45660527198186 14,77.14856052449747 14.666666666666666,80.82946130405585 15.333333333333332,79.77884603248259 16,76.83688021911685 16.666666666666664,76.29891388303682 17.333333333333332,76.98631125181844 18,76.47672535513632 18.666666666666664,76.23587373075978 19.333333333333332,76.12316486113974 20,78.98987322081042 20.666666666666664,79.43957207275474 21.333333333333332,79.9603136382799 22,81.51064102254637 22.666666666666664,82.49614339514291 23.333333333333332,81.59158674148327 24,78.87874236890138 24.666666666666664,79.16282059568766 25.333333333333332,83.29429786895959 26,80.95086920927886 26.666666666666664,72.10369269181771 27.333333333333332,71.67647989086842 28,72.45854056470796 28.666666666666664,70.49823416272618 29.333333333333332,70.32509985541458 30,70.35665509479807 30.666666666666664,68.4732304556341 31.333333333333332,64.91116398330513 32,65.16313556271375 32.666666666666664,63.683118264484904 33.33333333333333,61.09671588484959 34,65.8126259832922 34.666666666666664,66.42587498257069 35.33333333333333,75.04194404913892 36,72.19762273770716 36.666666666666664,70.17332875922382 37.33333333333333,70.13114039057686 38,68.07737038531812 38.666666666666664,68.47889448164284 39.33333333333333,62.518895967911405 40,66.6502356096309 40.666666666666664,60.338775455793055 41.33333333333333,63.81160956201416 42,52.22675370300957 42.666666666666664,47.38133632557516 43.33333333333333,51.16363168933709 44,44.252851828572695 44.666666666666664,44.84559955995221 45.33333333333333,46.567358187756014 46,44.37489279595271 46.666666666666664,38.80818061526992 47.33333333333333,38.90270570542982 48,38.58067335853581 48.666666666666664,39.37122150156581 49.33333333333333,39.776416245175405 50,39.07766579919665 50.666666666666664,42.11458064090311 51.33333333333333,47.176260230612336 52,42.77032727525659 52.666666666666664,46.93627225080343 53.33333333333333,44.74950380577758 54,42.74543136947738 54.666666666666664,43.72122014869285 55.33333333333333,43.96688128887881 56,42.6042531286587 56.666666666666664,47.7933804646224 57.33333333333333,52.24409486231503 58,52.72769902767902 58.666666666666664,49.06907625067949 59.33333333333333,50.919956586461886 60,50.59900505310625 60.666666666666664,48.04388891674903 61.33333333333333,49.53726415691689 62,48.09499687147872 62.666666666666664,50.543642408425185 63.33333333333333,51.384010119323655 64,46.857034972671144 64.66666666666666,47.94524047486913 65.33333333333333,46.37306549401248 66,45.33243660138881 66.66666666666666,45.53703363149061 67.33333333333333,40.46430008636991 68,27.80506577948985 68.66666666666666,15.51145295072888 69.33333333333333,19.555739634973605 70,26.501471115269126 70.66666666666666,16.740741186212873 71.33333333333333,15.780092272003671 72,14.410536397649224 72.66666666666666,0 73.33333333333333,22.943785622787075 74,23.41998765168364 74.66666666666666,29.268041980433296 75.33333333333333,23.046920977274908 76,14.75777952248501 76.66666666666666,10.385877024741134 77.33333333333333,4.968196362788518 78,14.536136093799485 78.66666666666666,18.731049767875106 79.33333333333333,16.27820797595905 80,11.113563163638759 80.66666666666666,9.84328681172984 81.33333333333333,14.201525911537331 82,15.163786282414321 82.66666666666666,18.64105958109792 83.33333333333333,17.27078800586554 84,20.50456199038034 84.66666666666666,24.582365055416318 85.33333333333333,20.99751110659905 86,22.476539669286325 86.66666666666666,31.35471101918334 87.33333333333333,33.81644367682428 88,34.74418675445209 88.66666666666666,30.755007701886655 89.33333333333333,27.424584432210565 90,35.87964105152962 90.66666666666666,43.710861994368386 91.33333333333333,42.0656492377549 92,33.35058995903188 92.66666666666666,30.04215993178802 93.33333333333333,31.746847447943722 94,28.094860412860655 94.66666666666666,30.089589296173585 95.33333333333333,31.110541943560236 96,34.315008205761416 96.66666666666666,25.38029071249518 97.33333333333333,26.626091088741916 98,27.58623283120812 98.66666666666666,25.759688263284147 99.33333333333333,25.152826152663977 100,31.35574877012172" stroke="#00A68C" stroke-linecap="round" stroke-width="1.4" fill="none" vector-effect="non-scaling-stroke"></polyline></svg>