<svg xmlns="http://www.w3.org/2000/svg" version="1.1" viewBox="0 0 100 100" preserveAspectRatio="none" class="css-1aadux1"><polyline points=" 0,94.28541584325012 0.6666666666666666,100 1.3333333333333333,96.13983387577062 2,94.26660161613803 2.6666666666666665,94.21975941121624 3.333333333333333,94.98626937983124 4,93.98133501270522 4.666666666666666,97.8654634243086 5.333333333333333,98.1452012637166 6,97.79500317285694 6.666666666666666,99.20316873799379 7.333333333333333,97.45311177521383 8,95.61902990501002 8.666666666666666,93.6435910358718 9.333333333333332,93.93003254572474 10,91.37639617130432 10.666666666666666,93.41102781657152 11.333333333333332,91.15107457291698 12,92.30611835894659 12.666666666666666,91.78813300741831 13.333333333333332,91.33614708343794 14,91.96677838410271 14.666666666666666,92.4846667494518 15.333333333333332,91.51435437914631 16,87.20428168437861 16.666666666666664,88.7985515321753 17.333333333333332,88.56442533740957 18,88.42804442875124 18.666666666666664,86.66685529769916 19.333333333333332,87.93767786745714 20,87.70049393241969 20.666666666666664,85.07294060427752 21.333333333333332,80.4862275056395 22,81.55479221281847 22.666666666666664,82.065551583625 23.333333333333332,79.21856186791335 24,80.01742996269246 24.666666666666664,80.1220121248238 25.333333333333332,82.91016977678123 26,81.6044791803226 26.666666666666664,80.16982227609725 27.333333333333332,78.70467144988322 28,79.47029883370797 28.666666666666664,74.52027074929151 29.333333333333332,77.72837248871885 30,77.78798956832335 30.666666666666664,76.34469992564102 31.333333333333332,72.58170594196913 32,69.30462846586863 32.666666666666664,67.48570081801898 33.33333333333333,69.0150067104449 34,68.85641427534196 34.666666666666664,68.08088850385103 35.33333333333333,69.47669897828357 36,69.86930322869426 36.666666666666664,68.78057231490891 37.33333333333333,67.85928791634004 38,68.60153813706467 38.666666666666664,71.21539065095982 39.33333333333333,70.35455786749431 40,75.70348310836204 40.666666666666664,75.3427874316252 41.33333333333333,76.87204596597965 42,73.55547191775374 42.666666666666664,71.25835031686773 43.33333333333333,66.93044364628446 44,60.0799060214822 44.666666666666664,60.660954367482276 45.33333333333333,62.301481594545024 46,55.88289592112214 46.666666666666664,55.53830436434129 47.33333333333333,56.336216439542675 48,57.03262254955153 48.666666666666664,57.82937397472019 49.33333333333333,48.56316830997528 50,45.399393827680555 50.666666666666664,49.74313321544975 51.33333333333333,50.10516462413741 52,47.44477972838603 52.666666666666664,48.43185050920816 53.33333333333333,46.964154820835915 54,43.43802226444874 54.666666666666664,42.592572789213754 55.33333333333333,43.06717987430656 56,42.63590221427819 56.666666666666664,42.124214586275976 57.33333333333333,43.48622664731834 58,44.39636738540158 58.666666666666664,45.50995101752775 59.33333333333333,45.482394204872 60,44.243558992787435 60.666666666666664,43.318773088869435 61.33333333333333,44.22911654151898 62,44.75363731874816 62.666666666666664,45.34678539968855 63.33333333333333,44.960976158922506 64,45.227011464714074 64.66666666666666,45.00666797338408 65.33333333333333,41.73264054845491 66,42.854246565400224 66.66666666666666,42.69738761755346 67.33333333333333,35.71124748999459 68,31.632680551715993 68.66666666666666,28.576678557367558 69.33333333333333,27.45755722353131 70,34.69807447107594 70.66666666666666,27.571380112608495 71.33333333333333,29.63208297545812 72,27.16360055359253 72.66666666666666,15.852919649098624 73.33333333333333,33.38065704481191 74,32.77230451921692 74.66666666666666,41.64764263536138 75.33333333333333,32.5654119427696 76,27.78645786162174 76.66666666666666,22.968021323201953 77.33333333333333,9.174894517282468 78,16.28073620999146 78.66666666666666,18.349179373933936 79.33333333333333,16.16036361811581 80,12.530452176943129 80.66666666666666,7.129253878443947 81.33333333333333,8.713780752588633 82,8.50297247117608 82.66666666666666,9.39280782938772 83.33333333333333,7.2514180705016855 84,0 84.66666666666666,7.337089277022997 85.33333333333333,5.209405402695992 86,5.097090918576981 86.66666666666666,13.242037089631324 87.33333333333333,24.50835288122917 88,25.58244774188519 88.66666666666666,19.902360995313245 89.33333333333333,18.823217041255845 90,27.656615818506083 90.66666666666666,29.095937838500433 91.33333333333333,27.061065099180638 92,22.634536584863184 92.66666666666666,24.540566777547824 93.33333333333333,25.38296637928036 94,24.297400995783264 94.66666666666666,24.310175999519842 95.33333333333333,21.27396846375042 96,24.425033823194255 96.66666666666666,15.33518850788812 97.33333333333333,16.08992868808903 98,17.968667328509312 98.66666666666666,13.640833882682628 99.33333333333333,12.603854085087619 100,16.994457851200337" stroke="#00A68C" stroke-linecap="round" stroke-width="1.4" fill="none" vector-effect="non-scaling-stroke"></polyline></svg>