<svg xmlns="http://www.w3.org/2000/svg" version="1.1" viewBox="0 0 100 100" preserveAspectRatio="none" class="css-1aadux1"><polyline points=" 0,98.46109814970305 0.6666666666666666,98.76955811335571 1.3333333333333333,98.11517439585239 2,96.47909421915546 2.6666666666666665,94.00594949267551 3.333333333333333,94.7518401728132 4,95.16839266942925 4.666666666666666,98.49576671917434 5.333333333333333,99.10915050785319 6,99.3967586727425 6.666666666666666,100 7.333333333333333,99.05031438142439 8,97.9117892936073 8.666666666666666,96.01492123193952 9.333333333333332,95.95086540787322 10,95.26289099339213 10.666666666666666,95.4261791246033 11.333333333333332,93.94553544055364 12,92.32439314204719 12.666666666666666,91.68931639205567 13.333333333333332,90.38867324276538 14,93.83475504686781 14.666666666666666,94.26029621833656 15.333333333333332,89.86534210785399 16,91.36742083881498 16.666666666666664,93.00378466453947 17.333333333333332,93.12456386816949 18,93.41855424645453 18.666666666666664,94.02813390553145 19.333333333333332,94.87866250387187 20,95.65212543913839 20.666666666666664,95.2663054351013 21.333333333333332,96.23560149451438 22,96.46542960999275 22.666666666666664,96.77747779170261 23.333333333333332,96.61058114031081 24,96.67379829383115 24.666666666666664,92.2186649551644 25.333333333333332,94.90917068981742 26,94.51242041782561 26.666666666666664,93.31030075737927 27.333333333333332,94.09576358600928 28,95.51205754322652 28.666666666666664,95.09313986687636 29.333333333333332,95.30951285874941 30,96.2566409336787 30.666666666666664,95.96859975778281 31.333333333333332,94.6662304743572 32,94.35253696865368 32.666666666666664,93.49679377690848 33.33333333333333,93.36968347573303 34,93.8804639820618 34.666666666666664,93.70381842035158 35.33333333333333,94.48830219280129 36,95.83034690067703 36.666666666666664,95.75571996344323 37.33333333333333,95.69758941380488 38,93.96562659022935 38.666666666666664,93.85139695904478 39.33333333333333,93.44998404252608 40,93.77996199767898 40.666666666666664,94.41551671429814 41.33333333333333,92.57100740905528 42,96.09894007832384 42.666666666666664,93.19638174558489 43.33333333333333,91.05702334626821 44,90.78576484056003 44.666666666666664,91.48947283390595 45.33333333333333,92.66848281808666 46,91.64628364566795 46.666666666666664,91.47048187261076 47.33333333333333,91.6828527245966 48,90.54292233870308 48.666666666666664,91.92534690783516 49.33333333333333,91.29655973320166 50,88.72308679165064 50.666666666666664,89.69113150937574 51.33333333333333,88.81630523170611 52,87.72757307318183 52.666666666666664,86.31507408631639 53.33333333333333,83.82906483204673 54,84.26047252587739 54.666666666666664,86.2972978842479 55.33333333333333,86.67777504807744 56,86.7304575505033 56.666666666666664,87.10070165458845 57.33333333333333,87.71840872516337 58,91.13202906705801 58.666666666666664,89.56801419351815 59.33333333333333,89.20060564772643 60,88.64871386831523 60.666666666666664,89.25919903381828 61.33333333333333,88.42852849411588 62,87.20502516034381 62.666666666666664,87.74272096926516 63.33333333333333,86.23465061453585 64,87.04842473506322 64.66666666666666,87.63369434976121 65.33333333333333,87.22091591222926 66,87.25494943172652 66.66666666666666,86.79362283879644 67.33333333333333,85.76142906526005 68,88.95580651529832 68.66666666666666,87.76982971118142 69.33333333333333,87.06336811756195 70,60.9651487946329 70.66666666666666,7.2397172973086015 71.33333333333333,27.990412171256168 72,26.480412282700243 72.66666666666666,39.75716980397215 73.33333333333333,55.84433626394469 74,51.97126070289863 74.66666666666666,53.76455010859865 75.33333333333333,46.29997282639415 76,38.05280988028015 76.66666666666666,37.68964792541689 77.33333333333333,44.59322215637632 78,41.74558734986458 78.66666666666666,42.80673783134542 79.33333333333333,37.7633776386318 80,34.47864438691418 80.66666666666666,35.93030417641397 81.33333333333333,28.428391798601382 82,25.17367012476923 82.66666666666666,12.768521060861332 83.33333333333333,19.284184630020775 84,18.006217082573272 84.66666666666666,21.184135608147187 85.33333333333333,23.84556224651095 86,30.13004863646853 86.66666666666666,36.118147676143785 87.33333333333333,37.36731426772084 88,34.64159197910655 88.66666666666666,27.786647440091798 89.33333333333333,27.211996347790063 90,44.74083270568728 90.66666666666666,45.84689287820793 91.33333333333333,47.82353356593567 92,45.576494015034186 92.66666666666666,50.52643683698596 93.33333333333333,46.552778792240126 94,46.72739999618236 94.66666666666666,25.417623794779942 95.33333333333333,20.65346073719597 96,12.013730919960679 96.66666666666666,11.101412210680053 97.33333333333333,7.496463689676972 98,0 98.66666666666666,8.696456322106926 99.33333333333333,9.590251671336603 100,14.973550781896805" stroke="#00A68C" stroke-linecap="round" stroke-width="1.4" fill="none" vector-effect="non-scaling-stroke"></polyline></svg>