<svg height="auto" viewBox="0 0 2000 1000" xmlns="http://www.w3.org/2000/svg"><path d="M0 999.077c5.55-1.39 25.9-4.167 37-9.263 11.1-5.096 25.9-18.886 37-24.712 11.1-5.825 25.9-11.99 37-14.124 11.1-2.134 25.9 3.025 37-.102 11.1-3.127 25.9-12.305 37-20.747 11.1-8.441 25.9-33.797 37-35.53 11.1-1.732 25.9 29.132 37 23.983 11.1-5.149 25.9-49.401 37-58.307 11.1-8.906 25.9 6.419 37-1.066 11.1-7.485 25.9-40.268 37-48.834 11.1-8.566 25.9-14.345 37-8.27 11.1 6.074 25.9 43.164 37 48.764 11.1 5.6 25.9-8.577 37-11.43 11.1-2.851 25.9-5.819 37-7.584 11.1-1.765 25.9 6.76 37-4.184 11.1-10.944 25.9-49.577 37-68.773 11.1-19.196 25.9-63.238 37-59.2 11.1 4.036 25.9 78.154 37 86.114 11.1 7.96 25.9-22.052 37-33.052 11.1-11 25.9-35.254 37-40.278 11.1-5.024 25.9.956 37 6.788 11.1 5.832 25.9 47.132 37 32.092 11.1-15.04 25.9-130.807 37-132.359 11.1-1.551 25.9 105.58 37 122.016 11.1 16.436 25.9 20.133 37-12.441 11.1-32.575 25.9-170.527 37-204.721 11.1-34.195 25.9-35.964 37-23.241 11.1 12.722 25.9 101.438 37 108.056 11.1 6.618 25.9-38.43 37-63.937 11.1-25.508 25.9-113.092 37-106.117 11.1 6.975 25.9 158.781 37 152.617 11.1-6.165 25.9-192.486 37-193.715 11.1-1.228 25.9 169.218 37 185.522 11.1 16.304 25.9-74.312 37-76.829 11.1-2.517 25.9 71.51 37 60.048 11.1-11.462 25.9-105.425 37-136.462 11.1-31.036 25.9-88.535 37-70.447 11.1 18.087 25.9 187.641 37 191.032 11.1 3.39 25.9-176.876 37-168.429 11.1 8.447 25.9 212.315 37 224.745 11.1 12.43 25.9-122.307 37-141.882 11.1-19.574 25.9 50.05 37 11.387 11.1-38.662 25.9-229.873 37-269.134 11.1-39.26 25.9-3.493 37 7.397 11.1 10.89 25.9 15.622 37 65.203 11.1 49.582 25.9 247.293 37 265.338 11.1 18.044 25.9-104.215 37-145.04 11.1-40.824 25.9-79.901 37-127.122 11.1-47.221 25.9-197.958 37-187.684 11.1 10.274 25.9 240.397 37 256.174 11.1 15.777 25.9-142.522 37-150.993 11.1-8.47 25.9 51.391 37 94.52 11.1 43.128 25.9 178.034 37 193.003 11.1 14.968 31.45-79.23 37-93.212l2 615.345H0Z" fill="#146c261a"/><path d="M0 999.077c5.55-1.39 25.9-4.167 37-9.263 11.1-5.096 25.9-18.886 37-24.712 11.1-5.825 25.9-11.99 37-14.124 11.1-2.134 25.9 3.025 37-.102 11.1-3.127 25.9-12.305 37-20.747 11.1-8.441 25.9-33.797 37-35.53 11.1-1.732 25.9 29.132 37 23.983 11.1-5.149 25.9-49.401 37-58.307 11.1-8.906 25.9 6.419 37-1.066 11.1-7.485 25.9-40.268 37-48.834 11.1-8.566 25.9-14.345 37-8.27 11.1 6.074 25.9 43.164 37 48.764 11.1 5.6 25.9-8.577 37-11.43 11.1-2.851 25.9-5.819 37-7.584 11.1-1.765 25.9 6.76 37-4.184 11.1-10.944 25.9-49.577 37-68.773 11.1-19.196 25.9-63.238 37-59.2 11.1 4.036 25.9 78.154 37 86.114 11.1 7.96 25.9-22.052 37-33.052 11.1-11 25.9-35.254 37-40.278 11.1-5.024 25.9.956 37 6.788 11.1 5.832 25.9 47.132 37 32.092 11.1-15.04 25.9-130.807 37-132.359 11.1-1.551 25.9 105.58 37 122.016 11.1 16.436 25.9 20.133 37-12.441 11.1-32.575 25.9-170.527 37-204.721 11.1-34.195 25.9-35.964 37-23.241 11.1 12.722 25.9 101.438 37 108.056 11.1 6.618 25.9-38.43 37-63.937 11.1-25.508 25.9-113.092 37-106.117 11.1 6.975 25.9 158.781 37 152.617 11.1-6.165 25.9-192.486 37-193.715 11.1-1.228 25.9 169.218 37 185.522 11.1 16.304 25.9-74.312 37-76.829 11.1-2.517 25.9 71.51 37 60.048 11.1-11.462 25.9-105.425 37-136.462 11.1-31.036 25.9-88.535 37-70.447 11.1 18.087 25.9 187.641 37 191.032 11.1 3.39 25.9-176.876 37-168.429 11.1 8.447 25.9 212.315 37 224.745 11.1 12.43 25.9-122.307 37-141.882 11.1-19.574 25.9 50.05 37 11.387 11.1-38.662 25.9-229.873 37-269.134 11.1-39.26 25.9-3.493 37 7.397 11.1 10.89 25.9 15.622 37 65.203 11.1 49.582 25.9 247.293 37 265.338 11.1 18.044 25.9-104.215 37-145.04 11.1-40.824 25.9-79.901 37-127.122 11.1-47.221 25.9-197.958 37-187.684 11.1 10.274 25.9 240.397 37 256.174 11.1 15.777 25.9-142.522 37-150.993 11.1-8.47 25.9 51.391 37 94.52 11.1 43.128 25.9 178.034 37 193.003 11.1 14.968 31.45-79.23 37-93.212" fill="none" stroke="#146c26" stroke-width="4"/><g fill="#146c26"><circle cy="999.077" r="8"/><circle cx="37" cy="989.814" r="8"/><circle cx="74" cy="965.102" r="8"/><circle cx="111" cy="950.978" r="8"/><circle cx="148" cy="950.876" r="8"/><circle cx="185" cy="930.129" r="8"/><circle cx="222" cy="894.599" r="8"/><circle cx="259" cy="918.582" r="8"/><circle cx="296" cy="860.275" r="8"/><circle cx="333" cy="859.209" r="8"/><circle cx="370" cy="810.375" r="8"/><circle cx="407" cy="802.105" r="8"/><circle cx="444" cy="850.869" r="8"/><circle cx="481" cy="839.44" r="8"/><circle cx="518" cy="831.855" r="8"/><circle cx="555" cy="827.671" r="8"/><circle cx="592" cy="758.898" r="8"/><circle cx="629" cy="699.697" r="8"/><circle cx="666" cy="785.812" r="8"/><circle cx="703" cy="752.76" r="8"/><circle cx="740" cy="712.482" r="8"/><circle cx="777" cy="719.27" r="8"/><circle cx="814" cy="751.362" r="8"/><circle cx="851" cy="619.003" r="8"/><circle cx="888" cy="741.019" r="8"/><circle cx="925" cy="728.578" r="8"/><circle cx="962" cy="523.857" r="8"/><circle cx="999" cy="500.616" r="8"/><circle cx="1036" cy="608.672" r="8"/><circle cx="1073" cy="544.735" r="8"/><circle cx="1110" cy="438.618" r="8"/><circle cx="1147" cy="591.235" r="8"/><circle cx="1184" cy="397.52" r="8"/><circle cx="1221" cy="583.042" r="8"/><circle cx="1258" cy="506.213" r="8"/><circle cx="1295" cy="566.261" r="8"/><circle cx="1332" cy="429.799" r="8"/><circle cx="1369" cy="359.352" r="8"/><circle cx="1406" cy="550.384" r="8"/><circle cx="1443" cy="381.955" r="8"/><circle cx="1480" cy="606.7" r="8"/><circle cx="1517" cy="464.818" r="8"/><circle cx="1554" cy="476.205" r="8"/><circle cx="1591" cy="207.071" r="8"/><circle cx="1628" cy="214.468" r="8"/><circle cx="1665" cy="279.671" r="8"/><circle cx="1702" cy="545.009" r="8"/><circle cx="1739" cy="399.969" r="8"/><circle cx="1776" cy="272.847" r="8"/><circle cx="1813" cy="85.163" r="8"/><circle cx="1850" cy="341.337" r="8"/><circle cx="1887" cy="190.344" r="8"/><circle cx="1924" cy="284.863" r="8"/><circle cx="1961" cy="477.867" r="8"/><circle cx="1998" cy="384.655" r="8"/></g></svg>