<svg height="auto" viewBox="0 0 2000 1000" xmlns="http://www.w3.org/2000/svg"><path d="M0 996.32c5.55-1.064 25.9-2.017 37-7.092 11.1-5.075 25.9-23.4 37-26.743 11.1-3.343 25.9 5.75 37 4.454 11.1-1.296 25.9-4.022 37-13.092 11.1-9.071 25.9-39.683 37-47.379 11.1-7.695 25.9-3.096 37-3.924 11.1-.828 25.9-1.737 37-1.595 11.1.141 25.9 1.617 37 2.538 11.1.922 25.9 4.53 37 3.605 11.1-.925 25.9-3.07 37-9.767 11.1-6.698 25.9-22.33 37-34.884 11.1-12.554 25.9-46.217 37-48.814 11.1-2.597 25.9 30.12 37 31.5 11.1 1.38 25.9-6.069 37-22.304 11.1-16.236 25.9-77.359 37-85.934 11.1-8.575 25.9 16.425 37 28.767 11.1 12.342 25.9 56.164 37 53.51 11.1-2.654 25.9-51.935 37-71.205 11.1-19.269 25.9-55.756 37-57.257 11.1-1.502 25.9 58.156 37 47.247 11.1-10.909 25.9-107.085 37-119.974 11.1-12.888 25.9 26.294 37 34.052 11.1 7.758 25.9 2.464 37 17.669 11.1 15.204 25.9 73.164 37 83.695 11.1 10.531 25.9-4.398 37-13.487 11.1-9.089 25.9-14.707 37-47.106 11.1-32.4 25.9-167.471 37-168.888 11.1-1.416 25.9 134.814 37 159.444 11.1 24.631 25.9 28.51 37 4.762 11.1-23.747 25.9-121.694 37-163.077 11.1-41.384 25.9-117.433 37-112.813 11.1 4.619 25.9 132.252 37 143.606 11.1 11.355 25.9-55.713 37-67.91 11.1-12.195 25.9-30.538 37-13.399 11.1 17.14 25.9 113.856 37 127.664 11.1 13.81 25.9-36.941 37-35.605 11.1 1.336 25.9 47.229 37 44.512 11.1-2.717 25.9-38.316 37-62.623 11.1-24.307 25.9-87.415 37-99.425 11.1-12.009 25.9 41.514 37 19.363 11.1-22.15 25.9-168.982 37-167.034 11.1 1.948 25.9 167.66 37 180.018 11.1 12.358 25.9-111.17 37-97.632 11.1 13.538 25.9 172.642 37 187.886 11.1 15.244 25.9-33.128 37-86.258 11.1-53.13 25.9-232.894 37-267.94 11.1-35.047 25.9-4.765 37 34.299 11.1 39.064 25.9 220.574 37 226.129 11.1 5.555 25.9-160.03 37-189.096 11.1-29.066 25.9.842 37-4.678 11.1-5.52 25.9.617 37-32.125 11.1-32.741 25.9-217.632 37-186.152 11.1 31.48 25.9 370.097 37 396.02 11.1 25.922 31.45-189.724 37-223.205l2 761.357H0Z" fill="#146c261a"/><path d="M0 996.32c5.55-1.064 25.9-2.017 37-7.092 11.1-5.075 25.9-23.4 37-26.743 11.1-3.343 25.9 5.75 37 4.454 11.1-1.296 25.9-4.022 37-13.092 11.1-9.071 25.9-39.683 37-47.379 11.1-7.695 25.9-3.096 37-3.924 11.1-.828 25.9-1.737 37-1.595 11.1.141 25.9 1.617 37 2.538 11.1.922 25.9 4.53 37 3.605 11.1-.925 25.9-3.07 37-9.767 11.1-6.698 25.9-22.33 37-34.884 11.1-12.554 25.9-46.217 37-48.814 11.1-2.597 25.9 30.12 37 31.5 11.1 1.38 25.9-6.069 37-22.304 11.1-16.236 25.9-77.359 37-85.934 11.1-8.575 25.9 16.425 37 28.767 11.1 12.342 25.9 56.164 37 53.51 11.1-2.654 25.9-51.935 37-71.205 11.1-19.269 25.9-55.756 37-57.257 11.1-1.502 25.9 58.156 37 47.247 11.1-10.909 25.9-107.085 37-119.974 11.1-12.888 25.9 26.294 37 34.052 11.1 7.758 25.9 2.464 37 17.669 11.1 15.204 25.9 73.164 37 83.695 11.1 10.531 25.9-4.398 37-13.487 11.1-9.089 25.9-14.707 37-47.106 11.1-32.4 25.9-167.471 37-168.888 11.1-1.416 25.9 134.814 37 159.444 11.1 24.631 25.9 28.51 37 4.762 11.1-23.747 25.9-121.694 37-163.077 11.1-41.384 25.9-117.433 37-112.813 11.1 4.619 25.9 132.252 37 143.606 11.1 11.355 25.9-55.713 37-67.91 11.1-12.195 25.9-30.538 37-13.399 11.1 17.14 25.9 113.856 37 127.664 11.1 13.81 25.9-36.941 37-35.605 11.1 1.336 25.9 47.229 37 44.512 11.1-2.717 25.9-38.316 37-62.623 11.1-24.307 25.9-87.415 37-99.425 11.1-12.009 25.9 41.514 37 19.363 11.1-22.15 25.9-168.982 37-167.034 11.1 1.948 25.9 167.66 37 180.018 11.1 12.358 25.9-111.17 37-97.632 11.1 13.538 25.9 172.642 37 187.886 11.1 15.244 25.9-33.128 37-86.258 11.1-53.13 25.9-232.894 37-267.94 11.1-35.047 25.9-4.765 37 34.299 11.1 39.064 25.9 220.574 37 226.129 11.1 5.555 25.9-160.03 37-189.096 11.1-29.066 25.9.842 37-4.678 11.1-5.52 25.9.617 37-32.125 11.1-32.741 25.9-217.632 37-186.152 11.1 31.48 25.9 370.097 37 396.02 11.1 25.922 31.45-189.724 37-223.205" fill="none" stroke="#146c26" stroke-width="4"/><g fill="#146c26"><circle cy="996.32" r="8"/><circle cx="37" cy="989.228" r="8"/><circle cx="74" cy="962.485" r="8"/><circle cx="111" cy="966.939" r="8"/><circle cx="148" cy="953.847" r="8"/><circle cx="185" cy="906.468" r="8"/><circle cx="222" cy="902.544" r="8"/><circle cx="259" cy="900.949" r="8"/><circle cx="296" cy="903.487" r="8"/><circle cx="333" cy="907.092" r="8"/><circle cx="370" cy="897.325" r="8"/><circle cx="407" cy="862.441" r="8"/><circle cx="444" cy="813.627" r="8"/><circle cx="481" cy="845.127" r="8"/><circle cx="518" cy="822.823" r="8"/><circle cx="555" cy="736.889" r="8"/><circle cx="592" cy="765.656" r="8"/><circle cx="629" cy="819.166" r="8"/><circle cx="666" cy="747.961" r="8"/><circle cx="703" cy="690.704" r="8"/><circle cx="740" cy="737.951" r="8"/><circle cx="777" cy="617.977" r="8"/><circle cx="814" cy="652.029" r="8"/><circle cx="851" cy="669.698" r="8"/><circle cx="888" cy="753.393" r="8"/><circle cx="925" cy="739.906" r="8"/><circle cx="962" cy="692.8" r="8"/><circle cx="999" cy="523.912" r="8"/><circle cx="1036" cy="683.356" r="8"/><circle cx="1073" cy="688.118" r="8"/><circle cx="1110" cy="525.041" r="8"/><circle cx="1147" cy="412.228" r="8"/><circle cx="1184" cy="555.834" r="8"/><circle cx="1221" cy="487.925" r="8"/><circle cx="1258" cy="474.525" r="8"/><circle cx="1295" cy="602.189" r="8"/><circle cx="1332" cy="566.584" r="8"/><circle cx="1369" cy="611.096" r="8"/><circle cx="1406" cy="548.473" r="8"/><circle cx="1443" cy="449.048" r="8"/><circle cx="1480" cy="468.411" r="8"/><circle cx="1517" cy="301.377" r="8"/><circle cx="1554" cy="481.395" r="8"/><circle cx="1591" cy="383.763" r="8"/><circle cx="1628" cy="571.649" r="8"/><circle cx="1665" cy="485.391" r="8"/><circle cx="1702" cy="217.45" r="8"/><circle cx="1739" cy="251.75" r="8"/><circle cx="1776" cy="477.879" r="8"/><circle cx="1813" cy="288.783" r="8"/><circle cx="1850" cy="284.105" r="8"/><circle cx="1887" cy="251.98" r="8"/><circle cx="1924" cy="65.828" r="8"/><circle cx="1961" cy="461.847" r="8"/><circle cx="1998" cy="238.643" r="8"/></g></svg>