<svg height="auto" viewBox="0 0 2000 1000" xmlns="http://www.w3.org/2000/svg"><path d="M0 999.936c5.55-2.1 25.9-8.998 37-14.001 11.1-5.004 25.9-14.62 37-19.355 11.1-4.735 25.9-8.773 37-12.209 11.1-3.436 25.9-5.118 37-10.699 11.1-5.58 25.9-25.065 37-26.508 11.1-1.443 25.9 18.299 37 16.889 11.1-1.41 25.9-13.565 37-26.291 11.1-12.727 25.9-58.046 37-58.554 11.1-.508 25.9 58.536 37 55.169 11.1-3.368 25.9-73.954 37-77.622 11.1-3.667 25.9 54.31 37 53.17 11.1-1.142 25.9-42.723 37-60.777 11.1-18.054 25.9-50.26 37-59.584 11.1-9.324 25.9 2.622 37-2.577 11.1-5.199 25.9-36.301 37-32.08 11.1 4.22 25.9 44.779 37 60.218 11.1 15.44 25.9 54.52 37 42.71 11.1-11.809 25.9-109.63 37-121.438 11.1-11.809 25.9 33.289 37 42.717 11.1 9.428 25.9 19.092 37 20.137 11.1 1.044 25.9-7.411 37-13.175 11.1-5.764 25.9-5.928 37-25.252 11.1-19.325 25.9-78.316 37-103.579 11.1-25.262 25.9-60.277 37-64.84 11.1-4.563 25.9 34.064 37 34.42 11.1.357 25.9-40.255 37-32.045 11.1 8.21 25.9 80.305 37 86.78 11.1 6.476 25.9-24.341 37-43.61 11.1-19.27 25.9-66.293 37-84.851 11.1-18.558 25.9-35.94 37-38.871 11.1-2.932 25.9 20.296 37 19.324 11.1-.971 25.9-53.017 37-25.803 11.1 27.214 25.9 212.294 37 207.23 11.1-5.063 25.9-209.294 37-240.989 11.1-31.695 25.9 13.469 37 29.69 11.1 16.222 25.9 97.85 37 78.453 11.1-19.397 25.9-175.978 37-207.766 11.1-31.787 25.9-38.973 37-4.152 11.1 34.822 25.9 235.247 37 236.294 11.1 1.046 25.9-189.257 37-229.318 11.1-40.061 25.9-42.486 37-37.757 11.1 4.728 25.9 84.063 37 69.28 11.1-14.783 25.9-151.614 37-167.834 11.1-16.22 25.9 32.852 37 59.698 11.1 26.847 25.9 87.478 37 119.278 11.1 31.8 25.9 106.147 37 92.724 11.1-13.422 25.9-163.943 37-182.207 11.1-18.265 25.9 69.202 37 60.443 11.1-8.76 25.9-90.56 37-118.837 11.1-28.277 25.9-72.842 37-69.678 11.1 3.164 25.9 56.569 37 90.773 11.1 34.205 25.9 116.269 37 137.258 11.1 20.989 25.9 13.217 37 2.67 11.1-10.547 31.45-62.035 37-72.983l2 669.981H0Z" fill="#146c261a"/><path d="M0 999.936c5.55-2.1 25.9-8.998 37-14.001 11.1-5.004 25.9-14.62 37-19.355 11.1-4.735 25.9-8.773 37-12.209 11.1-3.436 25.9-5.118 37-10.699 11.1-5.58 25.9-25.065 37-26.508 11.1-1.443 25.9 18.299 37 16.889 11.1-1.41 25.9-13.565 37-26.291 11.1-12.727 25.9-58.046 37-58.554 11.1-.508 25.9 58.536 37 55.169 11.1-3.368 25.9-73.954 37-77.622 11.1-3.667 25.9 54.31 37 53.17 11.1-1.142 25.9-42.723 37-60.777 11.1-18.054 25.9-50.26 37-59.584 11.1-9.324 25.9 2.622 37-2.577 11.1-5.199 25.9-36.301 37-32.08 11.1 4.22 25.9 44.779 37 60.218 11.1 15.44 25.9 54.52 37 42.71 11.1-11.809 25.9-109.63 37-121.438 11.1-11.809 25.9 33.289 37 42.717 11.1 9.428 25.9 19.092 37 20.137 11.1 1.044 25.9-7.411 37-13.175 11.1-5.764 25.9-5.928 37-25.252 11.1-19.325 25.9-78.316 37-103.579 11.1-25.262 25.9-60.277 37-64.84 11.1-4.563 25.9 34.064 37 34.42 11.1.357 25.9-40.255 37-32.045 11.1 8.21 25.9 80.305 37 86.78 11.1 6.476 25.9-24.341 37-43.61 11.1-19.27 25.9-66.293 37-84.851 11.1-18.558 25.9-35.94 37-38.871 11.1-2.932 25.9 20.296 37 19.324 11.1-.971 25.9-53.017 37-25.803 11.1 27.214 25.9 212.294 37 207.23 11.1-5.063 25.9-209.294 37-240.989 11.1-31.695 25.9 13.469 37 29.69 11.1 16.222 25.9 97.85 37 78.453 11.1-19.397 25.9-175.978 37-207.766 11.1-31.787 25.9-38.973 37-4.152 11.1 34.822 25.9 235.247 37 236.294 11.1 1.046 25.9-189.257 37-229.318 11.1-40.061 25.9-42.486 37-37.757 11.1 4.728 25.9 84.063 37 69.28 11.1-14.783 25.9-151.614 37-167.834 11.1-16.22 25.9 32.852 37 59.698 11.1 26.847 25.9 87.478 37 119.278 11.1 31.8 25.9 106.147 37 92.724 11.1-13.422 25.9-163.943 37-182.207 11.1-18.265 25.9 69.202 37 60.443 11.1-8.76 25.9-90.56 37-118.837 11.1-28.277 25.9-72.842 37-69.678 11.1 3.164 25.9 56.569 37 90.773 11.1 34.205 25.9 116.269 37 137.258 11.1 20.989 25.9 13.217 37 2.67 11.1-10.547 31.45-62.035 37-72.983" fill="none" stroke="#146c26" stroke-width="4"/><g fill="#146c26"><circle cy="999.936" r="8"/><circle cx="37" cy="985.935" r="8"/><circle cx="74" cy="966.58" r="8"/><circle cx="111" cy="954.371" r="8"/><circle cx="148" cy="943.672" r="8"/><circle cx="185" cy="917.164" r="8"/><circle cx="222" cy="934.053" r="8"/><circle cx="259" cy="907.762" r="8"/><circle cx="296" cy="849.208" r="8"/><circle cx="333" cy="904.377" r="8"/><circle cx="370" cy="826.755" r="8"/><circle cx="407" cy="879.924" r="8"/><circle cx="444" cy="819.148" r="8"/><circle cx="481" cy="759.564" r="8"/><circle cx="518" cy="756.987" r="8"/><circle cx="555" cy="724.906" r="8"/><circle cx="592" cy="785.125" r="8"/><circle cx="629" cy="827.836" r="8"/><circle cx="666" cy="706.397" r="8"/><circle cx="703" cy="749.114" r="8"/><circle cx="740" cy="769.251" r="8"/><circle cx="777" cy="756.076" r="8"/><circle cx="814" cy="730.824" r="8"/><circle cx="851" cy="627.245" r="8"/><circle cx="888" cy="562.405" r="8"/><circle cx="925" cy="596.825" r="8"/><circle cx="962" cy="564.78" r="8"/><circle cx="999" cy="651.561" r="8"/><circle cx="1036" cy="607.95" r="8"/><circle cx="1073" cy="523.099" r="8"/><circle cx="1110" cy="484.228" r="8"/><circle cx="1147" cy="503.552" r="8"/><circle cx="1184" cy="477.749" r="8"/><circle cx="1221" cy="684.98" r="8"/><circle cx="1258" cy="443.99" r="8"/><circle cx="1295" cy="473.68" r="8"/><circle cx="1332" cy="552.133" r="8"/><circle cx="1369" cy="344.367" r="8"/><circle cx="1406" cy="340.215" r="8"/><circle cx="1443" cy="576.509" r="8"/><circle cx="1480" cy="347.191" r="8"/><circle cx="1517" cy="309.434" r="8"/><circle cx="1554" cy="378.714" r="8"/><circle cx="1591" cy="210.88" r="8"/><circle cx="1628" cy="270.578" r="8"/><circle cx="1665" cy="389.856" r="8"/><circle cx="1702" cy="482.58" r="8"/><circle cx="1739" cy="300.373" r="8"/><circle cx="1776" cy="360.816" r="8"/><circle cx="1813" cy="241.979" r="8"/><circle cx="1850" cy="172.301" r="8"/><circle cx="1887" cy="263.074" r="8"/><circle cx="1924" cy="400.332" r="8"/><circle cx="1961" cy="403.002" r="8"/><circle cx="1998" cy="330.019" r="8"/></g></svg>