<svg height="auto" viewBox="0 0 2000 1000" xmlns="http://www.w3.org/2000/svg"><path d="M0 9.354c5.55.134 25.9-1.005 37 .897 11.1 1.902 25.9 8.812 37 11.783 11.1 2.972 25.9.547 37 8.027 11.1 7.48 25.9 34.274 37 41.838 11.1 7.563 25.9 8.79 37 8.584 11.1-.207 25.9-15.008 37-9.964 11.1 5.044 25.9 33.268 37 43.59 11.1 10.322 25.9 28.717 37 25.223 11.1-3.493 25.9-41.931 37-48.513 11.1-6.582 25.9-4.223 37 4.635 11.1 8.857 25.9 43.879 37 54.416 11.1 10.537 25.9 13.334 37 15.83 11.1 2.498 25.9-4.733 37 .818 11.1 5.55 25.9 21.707 37 36.19 11.1 14.482 25.9 66.136 37 60.36 11.1-5.776 25.9-93.364 37-98.865 11.1-5.5 25.9 35.899 37 62.197 11.1 26.298 25.9 106.448 37 113.124 11.1 6.676 25.9-68.45 37-68.617 11.1-.167 25.9 75.841 37 67.505 11.1-8.336 25.9-130.713 37-123.08 11.1 7.634 25.9 145.092 37 173.97 11.1 28.877 25.9 41.495 37 18.546 11.1-22.95 25.9-175.154 37-171.544 11.1 3.61 25.9 169.137 37 195.611 11.1 26.474 25.9 5.404 37-19.117 11.1-24.52 25.9-161.482 37-144.356 11.1 17.127 25.9 230.52 37 258.535 11.1 28.015 25.9-70.01 37-71.771 11.1-1.761 25.9 61.022 37 60.033 11.1-.99 25.9-75.297 37-66.625 11.1 8.671 25.9 119.025 37 124.435 11.1 5.41 25.9-58.508 37-88.366 11.1-29.857 25.9-104.989 37-110.682 11.1-5.693 25.9 37.738 37 72.729 11.1 34.991 25.9 147.743 37 160.545 11.1 12.801 25.9-79.353 37-75.201 11.1 4.152 25.9 107.46 37 102.88 11.1-4.58 25.9-150.146 37-133.41 11.1 16.736 25.9 244.77 37 244.983 11.1.213 25.9-201.632 37-243.566 11.1-41.934 25.9-49.239 37-35.995 11.1 13.245 25.9 102.837 37 124.29 11.1 21.453 25.9 26.677 37 18.73 11.1-7.948 25.9-70.463 37-71.713 11.1-1.25 25.9 31.754 37 63.377 11.1 31.624 25.9 144.898 37 147.446 11.1 2.548 25.9-140.55 37-130.459 11.1 10.092 25.9 201.26 37 197.733 11.1-3.526 25.9-217.646 37-221.242 11.1-3.596 25.9 156.72 37 197.27 11.1 40.549 25.9 79.091 37 73.061 11.1-6.03 25.9-83.599 37-113.263 11.1-29.664 31.45-71.821 37-84.496l2 332.3H0Z" fill="#c713131a"/><path d="M0 9.354c5.55.134 25.9-1.005 37 .897 11.1 1.902 25.9 8.812 37 11.783 11.1 2.972 25.9.547 37 8.027 11.1 7.48 25.9 34.274 37 41.838 11.1 7.563 25.9 8.79 37 8.584 11.1-.207 25.9-15.008 37-9.964 11.1 5.044 25.9 33.268 37 43.59 11.1 10.322 25.9 28.717 37 25.223 11.1-3.493 25.9-41.931 37-48.513 11.1-6.582 25.9-4.223 37 4.635 11.1 8.857 25.9 43.879 37 54.416 11.1 10.537 25.9 13.334 37 15.83 11.1 2.498 25.9-4.733 37 .818 11.1 5.55 25.9 21.707 37 36.19 11.1 14.482 25.9 66.136 37 60.36 11.1-5.776 25.9-93.364 37-98.865 11.1-5.5 25.9 35.899 37 62.197 11.1 26.298 25.9 106.448 37 113.124 11.1 6.676 25.9-68.45 37-68.617 11.1-.167 25.9 75.841 37 67.505 11.1-8.336 25.9-130.713 37-123.08 11.1 7.634 25.9 145.092 37 173.97 11.1 28.877 25.9 41.495 37 18.546 11.1-22.95 25.9-175.154 37-171.544 11.1 3.61 25.9 169.137 37 195.611 11.1 26.474 25.9 5.404 37-19.117 11.1-24.52 25.9-161.482 37-144.356 11.1 17.127 25.9 230.52 37 258.535 11.1 28.015 25.9-70.01 37-71.771 11.1-1.761 25.9 61.022 37 60.033 11.1-.99 25.9-75.297 37-66.625 11.1 8.671 25.9 119.025 37 124.435 11.1 5.41 25.9-58.508 37-88.366 11.1-29.857 25.9-104.989 37-110.682 11.1-5.693 25.9 37.738 37 72.729 11.1 34.991 25.9 147.743 37 160.545 11.1 12.801 25.9-79.353 37-75.201 11.1 4.152 25.9 107.46 37 102.88 11.1-4.58 25.9-150.146 37-133.41 11.1 16.736 25.9 244.77 37 244.983 11.1.213 25.9-201.632 37-243.566 11.1-41.934 25.9-49.239 37-35.995 11.1 13.245 25.9 102.837 37 124.29 11.1 21.453 25.9 26.677 37 18.73 11.1-7.948 25.9-70.463 37-71.713 11.1-1.25 25.9 31.754 37 63.377 11.1 31.624 25.9 144.898 37 147.446 11.1 2.548 25.9-140.55 37-130.459 11.1 10.092 25.9 201.26 37 197.733 11.1-3.526 25.9-217.646 37-221.242 11.1-3.596 25.9 156.72 37 197.27 11.1 40.549 25.9 79.091 37 73.061 11.1-6.03 25.9-83.599 37-113.263 11.1-29.664 31.45-71.821 37-84.496" fill="none" stroke="#c71313" stroke-width="4"/><g fill="#c71313"><circle cy="9.354" r="8"/><circle cx="37" cy="10.251" r="8"/><circle cx="74" cy="22.034" r="8"/><circle cx="111" cy="30.061" r="8"/><circle cx="148" cy="71.899" r="8"/><circle cx="185" cy="80.483" r="8"/><circle cx="222" cy="70.519" r="8"/><circle cx="259" cy="114.109" r="8"/><circle cx="296" cy="139.332" r="8"/><circle cx="333" cy="90.819" r="8"/><circle cx="370" cy="95.454" r="8"/><circle cx="407" cy="149.87" r="8"/><circle cx="444" cy="165.701" r="8"/><circle cx="481" cy="166.518" r="8"/><circle cx="518" cy="202.708" r="8"/><circle cx="555" cy="263.068" r="8"/><circle cx="592" cy="164.203" r="8"/><circle cx="629" cy="226.4" r="8"/><circle cx="666" cy="339.524" r="8"/><circle cx="703" cy="270.907" r="8"/><circle cx="740" cy="338.412" r="8"/><circle cx="777" cy="215.332" r="8"/><circle cx="814" cy="389.302" r="8"/><circle cx="851" cy="407.848" r="8"/><circle cx="888" cy="236.304" r="8"/><circle cx="925" cy="431.915" r="8"/><circle cx="962" cy="412.798" r="8"/><circle cx="999" cy="268.442" r="8"/><circle cx="1036" cy="526.977" r="8"/><circle cx="1073" cy="455.206" r="8"/><circle cx="1110" cy="515.239" r="8"/><circle cx="1147" cy="448.614" r="8"/><circle cx="1184" cy="573.049" r="8"/><circle cx="1221" cy="484.683" r="8"/><circle cx="1258" cy="374.001" r="8"/><circle cx="1295" cy="446.73" r="8"/><circle cx="1332" cy="607.275" r="8"/><circle cx="1369" cy="532.074" r="8"/><circle cx="1406" cy="634.954" r="8"/><circle cx="1443" cy="501.544" r="8"/><circle cx="1480" cy="746.527" r="8"/><circle cx="1517" cy="502.961" r="8"/><circle cx="1554" cy="466.966" r="8"/><circle cx="1591" cy="591.256" r="8"/><circle cx="1628" cy="609.986" r="8"/><circle cx="1665" cy="538.273" r="8"/><circle cx="1702" cy="601.65" r="8"/><circle cx="1739" cy="749.096" r="8"/><circle cx="1776" cy="618.637" r="8"/><circle cx="1813" cy="816.37" r="8"/><circle cx="1850" cy="595.128" r="8"/><circle cx="1887" cy="792.397" r="8"/><circle cx="1924" cy="865.459" r="8"/><circle cx="1961" cy="752.196" r="8"/><circle cx="1998" cy="667.7" r="8"/></g></svg>