<svg xmlns="http://www.w3.org/2000/svg" version="1.1" viewBox="0 0 100 100" preserveAspectRatio="none" class="css-1aadux1"><polyline points=" 0,9.996048304177634 0.6666666666666666,24.36930299534788 1.3333333333333333,18.710502230433832 2,22.2796350504902 2.6666666666666665,20.822510870454906 3.333333333333333,25.115698450785146 4,24.767077942214925 4.666666666666666,22.14197960551772 5.333333333333333,24.114715845336008 6,21.155147167934473 6.666666666666666,24.594175559337685 7.333333333333333,58.25906772756425 8,7.759460113478099 8.666666666666666,7.6345180227691 9.333333333333332,6.355965903438658 10,35.96347178977119 10.666666666666666,37.48291614033771 11.333333333333332,41.85588857224726 12,20.434745550783248 12.666666666666666,21.693984468096346 13.333333333333332,32.27425337033962 14,39.377514420816105 14.666666666666666,52.60326363775086 15.333333333333332,45.35067294692462 16,56.25510143410569 16.666666666666664,55.26759756627715 17.333333333333332,53.15455212125214 18,59.553673242964734 18.666666666666664,56.36739109495231 19.333333333333332,61.447069189982855 20,73.29281857740386 20.666666666666664,81.2309275384005 21.333333333333332,88.93054277884798 22,67.7010171212809 22.666666666666664,72.04462270553847 23.333333333333332,76.04609883098821 24,79.06641063406752 24.666666666666664,79.91593699757131 25.333333333333332,64.44126090715355 26,100 26.666666666666664,28.55291851097995 27.333333333333332,47.151085894479706 28,39.253491935952525 28.666666666666664,51.63266875641568 29.333333333333332,57.808752328116995 30,41.82191753681168 30.666666666666664,21.300013914740262 31.333333333333332,26.416607065186966 32,53.23564626487203 32.666666666666664,22.750869487164266 33.33333333333333,59.540203278321776 34,22.977420880217295 34.666666666666664,22.112329339867003 35.33333333333333,9.54859729060125 36,30.243264353415228 36.666666666666664,18.215759030919713 37.33333333333333,29.4567400284091 38,29.042493060615257 38.666666666666664,35.61842090871956 39.33333333333333,34.59037348248279 40,28.047480603795975 40.666666666666664,20.566727572071514 41.33333333333333,26.756702423265878 42,17.598110310468982 42.666666666666664,13.283513639022928 43.33333333333333,0 44,13.547608939431925 44.666666666666664,50.358225864813704 45.33333333333333,26.046646429684415 46,70.36390099268894 46.666666666666664,46.171395220674135 47.33333333333333,22.981067351552127 48,40.17748904953128 48.666666666666664,38.30749733682964 49.33333333333333,53.43893331700906 50,51.42728057226286 50.666666666666664,59.16388881086861 51.33333333333333,38.539376956708914 52,46.63090309743602 52.666666666666664,52.57673470627328 53.33333333333333,27.811389067148767 54,33.06625462735046 54.666666666666664,35.35418436079878 55.33333333333333,41.57765704406017 56,40.79707119160966 56.666666666666664,53.42316937483771 57.33333333333333,39.986474918732625 58,45.19533344884097 58.666666666666664,33.56676051796089 59.33333333333333,35.76282366151055 60,34.00961461200778 60.666666666666664,31.336019279646564 61.33333333333333,31.524732812435147 62,24.429063038951753 62.666666666666664,26.322650042021465 63.33333333333333,24.85875320125895 64,25.522507083031215 64.66666666666666,20.37650171159602 65.33333333333333,20.86773928172974 66,21.631801817960067 66.66666666666666,21.10777094668434 67.33333333333333,25.657687607856232 68,28.286263812463176 68.66666666666666,31.55684165099892 69.33333333333333,33.640160302675 70,38.87888857105658 70.66666666666666,35.101150137416795 71.33333333333333,22.709379456632334 72,28.36387642486568 72.66666666666666,20.915349502511134 73.33333333333333,9.304982564165144 74,20.319727477992686 74.66666666666666,14.088339990758357 75.33333333333333,17.20477206801378 76,13.676000773415424 76.66666666666666,12.793102240788201 77.33333333333333,29.063479638954206 78,19.518720914081086 78.66666666666666,18.133579172689366 79.33333333333333,17.649796466884993 80,13.523614302618086 80.66666666666666,19.50454155829152 81.33333333333333,23.32798639483265 82,14.214094160508168 82.66666666666666,52.50964886552987 83.33333333333333,19.800000392453114 84,16.892660277121024 84.66666666666666,16.799608904271338 85.33333333333333,44.248060963470216 86,22.874689002735096 86.66666666666666,16.876043630282396 87.33333333333333,2.9345591031774205 88,37.40810053016682 88.66666666666666,14.09086816876129 89.33333333333333,2.872641270147753 90,8.891094571989782 90.66666666666666,26.267895815089602 91.33333333333333,21.704925277419107 92,19.90672567992938 92.66666666666666,13.154068322905076 93.33333333333333,12.234962700711279 94,16.348437958208805 94.66666666666666,12.650203994715056 95.33333333333333,17.929060239847345 96,17.458322366558548 96.66666666666666,21.43029048839874 97.33333333333333,16.57806380897931 98,32.160838223333315 98.66666666666666,18.9583896009095 99.33333333333333,18.006442243073423 100,10.477737063144644" stroke="#D9475A" stroke-linecap="round" stroke-width="1.4" fill="none" vector-effect="non-scaling-stroke"></polyline></svg>