<svg height="auto" viewBox="0 0 2000 1000" xmlns="http://www.w3.org/2000/svg"><path d="M0 997.976c16-6.179 48-17.537 80-30.895 32-13.359 48-24.714 80-35.897 32-11.182 48-8.368 80-20.015 32-11.648 48-29.503 80-38.224 32-8.72 48-2.511 80-5.378s48 12.902 80-8.958 48-76.003 80-100.34c32-24.338 48-.173 80-21.348s48-87.493 80-84.526c32 2.968 48 94.489 80 99.364s48-50.948 80-74.988 48-44.5 80-45.213c32-.714 48 53.049 80 41.646 32-11.403 48-52.494 80-98.66 32-46.165 48-121.869 80-132.169 32-10.3 48 103.674 80 80.668 32-23.005 48-173.385 80-195.694 32-22.31 48 74.343 80 84.15 32 9.805 48-32.481 80-35.12 32-2.637 48-8.248 80 21.929s48 138.067 80 128.957c32-9.11 48-148.398 80-174.51 32-26.112 48 31.515 80 43.952 32 12.437 48 13.21 80 18.234 32 5.024 64 5.51 80 6.887V1000H0Z" fill="#2bc7001a"/><path d="M0 997.976c16-6.179 48-17.537 80-30.895 32-13.359 48-24.714 80-35.897 32-11.182 48-8.368 80-20.015 32-11.648 48-29.503 80-38.224 32-8.72 48-2.511 80-5.378s48 12.902 80-8.958 48-76.003 80-100.34c32-24.338 48-.173 80-21.348s48-87.493 80-84.526c32 2.968 48 94.489 80 99.364s48-50.948 80-74.988 48-44.5 80-45.213c32-.714 48 53.049 80 41.646 32-11.403 48-52.494 80-98.66 32-46.165 48-121.869 80-132.169 32-10.3 48 103.674 80 80.668 32-23.005 48-173.385 80-195.694 32-22.31 48 74.343 80 84.15 32 9.805 48-32.481 80-35.12 32-2.637 48-8.248 80 21.929s48 138.067 80 128.957c32-9.11 48-148.398 80-174.51 32-26.112 48 31.515 80 43.952 32 12.437 48 13.21 80 18.234 32 5.024 64 5.51 80 6.887" fill="none" stroke="#2bc700" stroke-width="4"/><g fill="#2bc700"><circle cy="997.976" r="8"/><circle cx="80" cy="967.081" r="8"/><circle cx="160" cy="931.184" r="8"/><circle cx="240" cy="911.169" r="8"/><circle cx="320" cy="872.945" r="8"/><circle cx="400" cy="867.567" r="8"/><circle cx="480" cy="858.609" r="8"/><circle cx="560" cy="758.269" r="8"/><circle cx="640" cy="736.921" r="8"/><circle cx="720" cy="652.395" r="8"/><circle cx="800" cy="751.759" r="8"/><circle cx="880" cy="676.771" r="8"/><circle cx="960" cy="631.558" r="8"/><circle cx="1040" cy="673.204" r="8"/><circle cx="1120" cy="574.544" r="8"/><circle cx="1200" cy="442.375" r="8"/><circle cx="1280" cy="523.043" r="8"/><circle cx="1360" cy="327.349" r="8"/><circle cx="1440" cy="411.498" r="8"/><circle cx="1520" cy="376.38" r="8"/><circle cx="1600" cy="398.308" r="8"/><circle cx="1680" cy="527.265" r="8"/><circle cx="1760" cy="352.755" r="8"/><circle cx="1840" cy="396.707" r="8"/><circle cx="1920" cy="414.941" r="8"/><circle cx="2000" cy="421.828" r="8"/></g></svg>