<svg height="auto" viewBox="0 0 2000 1000" xmlns="http://www.w3.org/2000/svg"><path d="M0 11.995c16 2.202 48-.144 80 11.01s48 33.29 80 44.761c32 11.472 48 4.125 80 12.596 32 8.47 48 17.246 80 29.758 32 12.513 48 20.373 80 32.803 32 12.43 48 10.54 80 29.348 32 18.809 48 54.12 80 64.694 32 10.575 48-8.196 80-11.821s48-2.936 80-6.304c32-3.367 48-21 80-10.534s48 31.348 80 62.864c32 31.517 48 75.697 80 94.717 32 19.02 48 2.29 80 .385 32-1.904 48-3.98 80-9.907 32-5.926 48-54.08 80-19.724 32 34.355 48 149.518 80 191.499 32 41.981 48-11.055 80 18.407 32 29.46 48 144.464 80 128.9 32-15.564 48-207.508 80-206.718 32 .79 48 189.495 80 210.666 32 21.171 48-79.086 80-104.811 32-25.726 48-3.182 80-23.817 32-20.636 48-77.607 80-79.36 32-1.754 48 25.449 80 70.594 32 45.146 64 124.106 80 155.132V1000H0Z" fill="#ff00001a"/><path d="M0 11.995c16 2.202 48-.144 80 11.01s48 33.29 80 44.761c32 11.472 48 4.125 80 12.596 32 8.47 48 17.246 80 29.758 32 12.513 48 20.373 80 32.803 32 12.43 48 10.54 80 29.348 32 18.809 48 54.12 80 64.694 32 10.575 48-8.196 80-11.821s48-2.936 80-6.304c32-3.367 48-21 80-10.534s48 31.348 80 62.864c32 31.517 48 75.697 80 94.717 32 19.02 48 2.29 80 .385 32-1.904 48-3.98 80-9.907 32-5.926 48-54.08 80-19.724 32 34.355 48 149.518 80 191.499 32 41.981 48-11.055 80 18.407 32 29.46 48 144.464 80 128.9 32-15.564 48-207.508 80-206.718 32 .79 48 189.495 80 210.666 32 21.171 48-79.086 80-104.811 32-25.726 48-3.182 80-23.817 32-20.636 48-77.607 80-79.36 32-1.754 48 25.449 80 70.594 32 45.146 64 124.106 80 155.132" fill="none" stroke="red" stroke-width="4"/></svg>