    <svg height="auto" viewBox="0 0 2000 1000" xmlns="http://www.w3.org/2000/svg"><path d="M0 12.272c16 3.399 48 7.062 80 16.995s48 18.084 80 32.669c32 14.585 48 29.918 80 40.256 32 10.339 48-3.535 80 11.435s48 55.623 80 63.418c32 7.794 48-20.888 80-24.445 32-3.557 48-10.157 80 6.66 32 16.818 48 42.18 80 77.426s48 100.925 80 98.802c32-2.122 48-129.667 80-109.414s48 174.696 80 210.68c32 35.982 48 .578 80-30.766 32-31.344 48-112.674 80-125.955 32-13.28 48 43.244 80 59.553 32 16.308 48-22.169 80 21.99 32 44.16 48 151.472 80 198.806 32 47.335 48 59.89 80 37.867 32-22.023 48-146.18 80-147.98 32-1.8 48 140.912 80 138.98 32-1.933 48-171.682 80-148.642 32 23.04 48 248.56 80 263.843 32 15.283 48-216.625 80-187.43 32 29.195 48 247.964 80 333.406 32 85.443 48 116.989 80 93.807 32-23.18 64-167.77 80-209.712V1000H0Z" fill="#106a001a"/><path d="M0 12.272c16 3.399 48 7.062 80 16.995s48 18.084 80 32.669c32 14.585 48 29.918 80 40.256 32 10.339 48-3.535 80 11.435s48 55.623 80 63.418c32 7.794 48-20.888 80-24.445 32-3.557 48-10.157 80 6.66 32 16.818 48 42.18 80 77.426s48 100.925 80 98.802c32-2.122 48-129.667 80-109.414s48 174.696 80 210.68c32 35.982 48 .578 80-30.766 32-31.344 48-112.674 80-125.955 32-13.28 48 43.244 80 59.553 32 16.308 48-22.169 80 21.99 32 44.16 48 151.472 80 198.806 32 47.335 48 59.89 80 37.867 32-22.023 48-146.18 80-147.98 32-1.8 48 140.912 80 138.98 32-1.933 48-171.682 80-148.642 32 23.04 48 248.56 80 263.843 32 15.283 48-216.625 80-187.43 32 29.195 48 247.964 80 333.406 32 85.443 48 116.989 80 93.807 32-23.18 64-167.77 80-209.712" fill="none" stroke="#106a00" stroke-width="2"/></svg>