<svg height="auto" viewBox="0 0 2000 1000" xmlns="http://www.w3.org/2000/svg"><path d="M0 673.577c16 6.287 48 129.515 80 31.438 32-98.077 48-522.222 80-521.824 32 .399 48 484.258 80 523.815 32 39.558 48-265.912 80-326.028 32-60.116 48-18.2 80 25.449 32 43.647 48 212.757 80 192.79 32-19.967 48-207.038 80-292.625 32-85.587 48-165.344 80-135.308 32 30.035 48 273.56 80 285.485 32 11.924 48-230.406 80-225.865 32 4.54 48 233.347 80 248.568 32 15.221 48-179.68 80-172.462 32 7.217 48 119.949 80 208.549 32 88.6 48 228.47 80 234.45 32 5.98 48-81.893 80-204.55 32-122.655 48-419.32 80-408.73 32 10.59 48 350.528 80 461.684s48 109.609 80 94.096c32-15.513 48-156.48 80-171.66 32-15.18 48 73.93 80 95.757 32 21.827 48-17.6 80 13.38 32 30.982 48 243.427 80 141.523 32-101.903 48-617.092 80-651.04 32-33.947 48 478.274 80 481.303 32 3.03 64-372.925 80-466.156V1000H0Z" fill="#106a001a"/><path d="M0 673.577c16 6.287 48 129.515 80 31.438 32-98.077 48-522.222 80-521.824 32 .399 48 484.258 80 523.815 32 39.558 48-265.912 80-326.028 32-60.116 48-18.2 80 25.449 32 43.647 48 212.757 80 192.79 32-19.967 48-207.038 80-292.625 32-85.587 48-165.344 80-135.308 32 30.035 48 273.56 80 285.485 32 11.924 48-230.406 80-225.865 32 4.54 48 233.347 80 248.568 32 15.221 48-179.68 80-172.462 32 7.217 48 119.949 80 208.549 32 88.6 48 228.47 80 234.45 32 5.98 48-81.893 80-204.55 32-122.655 48-419.32 80-408.73 32 10.59 48 350.528 80 461.684s48 109.609 80 94.096c32-15.513 48-156.48 80-171.66 32-15.18 48 73.93 80 95.757 32 21.827 48-17.6 80 13.38 32 30.982 48 243.427 80 141.523 32-101.903 48-617.092 80-651.04 32-33.947 48 478.274 80 481.303 32 3.03 64-372.925 80-466.156" fill="none" stroke="#106a00" stroke-width="2"/></svg>