<svg xmlns="http://www.w3.org/2000/svg" version="1.1" viewBox="0 0 100 100" preserveAspectRatio="none" class="css-1aadux1"><polyline points=" 0,90.89806557433133 0.6666666666666666,90.07876938391016 1.3333333333333333,89.40770182350269 2,89.94827614028014 2.6666666666666665,93.19308536490496 3.333333333333333,89.11130571653193 4,94.90427126140833 4.666666666666666,96.27996038130006 5.333333333333333,92.65440749389334 6,92.55014917532101 6.666666666666666,92.61107315270617 7.333333333333333,93.12908461626945 8,93.14442742141576 8.666666666666666,96.51397675990631 9.333333333333332,95.98406526373572 10,100 10.666666666666666,97.28234950083933 11.333333333333332,95.55166824582429 12,93.31735656332846 12.666666666666666,92.65981897954039 13.333333333333332,92.02324306980428 14,90.85296345409947 14.666666666666666,89.44316552227218 15.333333333333332,89.88032924498326 16,90.1015802559421 16.666666666666664,90.65037242857233 17.333333333333332,90.11659151787417 18,90.32370764471855 18.666666666666664,90.30837617287355 19.333333333333332,88.35964681465832 20,86.68008980495983 20.666666666666664,86.87687000087728 21.333333333333332,85.65508057385479 22,85.96833098129397 22.666666666666664,85.23776932614079 23.333333333333332,85.56576935254436 24,87.43594211093775 24.666666666666664,85.13170169662976 25.333333333333332,88.87658492303144 26,88.17867919453396 26.666666666666664,88.3760426798999 27.333333333333332,86.7860746465723 28,88.05731246259592 28.666666666666664,89.67516694230113 29.333333333333332,89.96304694657988 30,89.40142682923256 30.666666666666664,89.69951368249303 31.333333333333332,88.58757115200126 32,88.90390258890928 32.666666666666664,88.51848732791333 33.33333333333333,89.6706842533714 34,87.40147780627179 34.666666666666664,87.9577957792752 35.33333333333333,85.3304586182631 36,86.71273304925002 36.666666666666664,86.52071474719747 37.33333333333333,87.55949867912295 38,87.19992203725349 38.666666666666664,86.54070223622061 39.33333333333333,87.9250353256517 40,87.4705771921706 40.666666666666664,88.15236043598925 41.33333333333333,86.28149391376074 42,85.99442529007989 42.666666666666664,86.2520229202701 43.33333333333333,90.07561657620266 44,90.7272922869718 44.666666666666664,93.78560260620344 45.33333333333333,92.69557947576337 46,92.17464214353173 46.666666666666664,87.7108286985208 47.33333333333333,81.40209903920555 48,76.176785144526 48.666666666666664,69.79776222829776 49.33333333333333,71.04784504581266 50,71.61457103354641 50.666666666666664,73.50836628996774 51.33333333333333,70.01681887237727 52,69.71973465217812 52.666666666666664,64.80929202796108 53.33333333333333,66.02273608874174 54,65.05090950865946 54.666666666666664,70.09253880708397 55.33333333333333,68.58725494469917 56,65.83353523988956 56.666666666666664,68.1775398773456 57.33333333333333,66.27259776236886 58,65.66476419571495 58.666666666666664,65.91877443315497 59.33333333333333,66.07069979162497 60,71.53271477950065 60.666666666666664,71.5609142266058 61.33333333333333,75.43421467369231 62,78.02853628515177 62.666666666666664,76.93508481741783 63.33333333333333,76.69301689223376 64,74.45309892488282 64.66666666666666,71.34271839169256 65.33333333333333,72.20809264462812 66,74.33398728627905 66.66666666666666,71.68822354713683 67.33333333333333,75.23597767274322 68,74.81929477624341 68.66666666666666,75.86008567384985 69.33333333333333,72.73969363788893 70,73.66382569812549 70.66666666666666,71.98921137737443 71.33333333333333,70.25163645389527 72,65.55199398454373 72.66666666666666,63.96527629946453 73.33333333333333,65.3867318412965 74,65.56838715928782 74.66666666666666,63.16774301102444 75.33333333333333,65.05237484748574 76,55.5142429913822 76.66666666666666,60.21710004876743 77.33333333333333,67.23923388891478 78,63.52938307734371 78.66666666666666,64.59601290321824 79.33333333333333,52.69274863387545 80,53.30234411564498 80.66666666666666,48.11464767513884 81.33333333333333,37.682356515207616 82,34.91696594990739 82.66666666666666,37.28902658467816 83.33333333333333,34.83742184485983 84,28.70829812282301 84.66666666666666,33.055834203288754 85.33333333333333,27.69176205790211 86,12.195620745534299 86.66666666666666,19.057689075684777 87.33333333333333,14.066858631952655 88,18.48338989582082 88.66666666666666,12.672933751492508 89.33333333333333,7.721127872688925 90,11.53470550261379 90.66666666666666,14.452701771774045 91.33333333333333,19.42371542603371 92,21.48555651693698 92.66666666666666,13.569930514319338 93.33333333333333,23.46454807095843 94,32.16238801197892 94.66666666666666,26.319341421041415 95.33333333333333,18.129640020459476 96,0.38197551295027665 96.66666666666666,4.713395326502379 97.33333333333333,0.5276698379199587 98,0 98.66666666666666,5.794631265269686 99.33333333333333,6.471129390764219 100,9.61002993302418" stroke="#00A68C" stroke-linecap="round" stroke-width="1.4" fill="none" vector-effect="non-scaling-stroke"></polyline></svg>