<svg xmlns="http://www.w3.org/2000/svg" version="1.1" viewBox="0 0 100 100" preserveAspectRatio="none" class="css-1no9r3h"><polyline points=" 0,90.45879144743016 0.34843205574912894,89.89135282635668 0.6968641114982579,87.31218638877378 1.0452961672473868,90.52427736920285 1.3937282229965158,90.92252312672714 1.7421602787456447,92.89782632484469 2.0905923344947737,91.91558557297485 2.439024390243903,87.24014218494551 2.7874564459930316,78.65267406041866 3.1358885017421603,79.74904218505867 3.4843205574912894,86.90947442353419 3.8327526132404186,87.28078481998183 4.181184668989547,89.27933837196099 4.529616724738676,90.37533042955799 4.878048780487806,95.25456934005491 5.226480836236934,93.12195813683114 5.574912891986063,93.70586738460565 5.923344947735192,92.63546732391575 6.2717770034843205,91.90823935253235 6.62020905923345,92.55569855881276 6.968641114982579,91.79038125435662 7.317073170731708,92.55285718572433 7.665505226480837,94.53753548387384 8.013937282229966,92.29644424352777 8.362369337979095,93.05517282920678 8.710801393728223,93.7087898515621 9.059233449477352,93.60636191327197 9.40766550522648,95.90245286122868 9.756097560975611,97.24898025006073 10.10452961672474,95.74341171256825 10.452961672473869,95.85978539778003 10.801393728222997,94.42038014248176 11.149825783972126,92.20420363466268 11.498257839721255,91.22571864497425 11.846689895470384,89.08531381270738 12.195121951219512,90.78415023066312 12.543554006968641,92.08978582029948 12.891986062717772,91.33155018366993 13.2404181184669,93.64080343028309 13.588850174216029,93.03530972912803 13.937282229965158,94.55594931670811 14.285714285714286,94.74990876461791 14.634146341463415,95.17698573272293 14.982578397212544,93.18864222265772 15.331010452961674,92.6285905147461 15.679442508710803,95.19863733615985 16.027874564459932,94.8685548407354 16.37630662020906,95.68889891951015 16.72473867595819,96.96558039551 17.073170731707318,97.14295439333284 17.421602787456447,95.86519129750863 17.770034843205575,97.14054891005169 18.118466898954704,97.8486196900283 18.466898954703833,97.5725417386308 18.81533101045296,98.15621347091835 19.16376306620209,97.724456182105 19.512195121951223,98.32018665878549 19.86062717770035,99.93963634289192 20.20905923344948,98.59084388292355 20.55749128919861,96.96598523126782 20.905923344947738,97.87743113665854 21.254355400696866,97.51673261159631 21.602787456445995,98.18252620897437 21.951219512195124,98.66875343514772 22.299651567944252,97.93534942500159 22.64808362369338,97.21708900474994 22.99651567944251,97.95475257676483 23.34494773519164,97.13157980691224 23.693379790940767,99.16313564047006 24.041811846689896,99.10491449505224 24.390243902439025,98.9046021378678 24.738675958188153,97.49681467054323 25.087108013937282,98.20504033480722 25.435540069686414,99.89373761594224 25.783972125435543,99.73279801228301 26.132404181184672,97.97374764609086 26.4808362369338,98.19350563355074 26.82926829268293,97.85891930839402 27.177700348432058,98.36441701779474 27.526132404181187,99.11293864582953 27.874564459930316,99.88985154430961 28.222996515679444,98.3366680589987 28.571428571428573,98.57484543052327 28.9198606271777,100 29.26829268292683,99.74379161935214 29.61672473867596,99.8116128715768 29.965156794425088,99.19103442089471 30.313588850174217,98.49151424937634 30.66202090592335,98.79480369891435 31.010452961672478,98.14929839300916 31.358885017421606,98.95137447502711 31.707317073170735,98.59617654743604 32.055749128919864,98.87124975771644 32.40418118466899,98.26537045556279 32.75261324041812,98.52553047405463 33.10104529616725,95.93165427573337 33.44947735191638,96.17247185793688 33.79790940766551,98.02427038651015 34.146341463414636,94.25804757320924 34.494773519163765,87.35628505465965 34.84320557491289,76.25491949027678 35.19163763066202,64.55101876954079 35.54006968641115,61.52072657724863 35.88850174216028,66.57791465315954 36.23693379790941,67.44570301052002 36.58536585365854,54.78352475832624 36.933797909407666,49.85870625486151 37.282229965156795,58.62961320317074 37.63066202090592,54.64600552419239 37.97909407665505,60.01586146424337 38.32752613240418,54.758457312981555 38.67595818815331,53.843821841487525 39.024390243902445,58.003090858457426 39.372822299651574,61.91060364782943 39.7212543554007,59.56993816305149 40.06968641114983,61.241690331131664 40.41811846689896,58.864475429816665 40.76655052264809,51.44001049134198 41.11498257839722,56.94742792166289 41.463414634146346,59.72985867800919 41.811846689895475,55.60241863912378 42.160278745644604,58.11750624865265 42.50871080139373,56.86250507993486 42.85714285714286,54.1689249099706 43.20557491289199,54.840730284566575 43.55400696864112,55.043668234140135 43.90243902439025,52.66182453233644 44.250871080139376,43.210692804918814 44.599303135888505,30.068716046738217 44.94773519163763,30.603561967464827 45.29616724738676,32.357380765801466 45.64459930313589,37.555231636184196 45.99303135888502,36.266879972659204 46.34146341463415,39.18182430852216 46.68989547038328,41.65172522614965 47.038327526132406,38.00274382724575 47.386759581881535,37.76609963640828 47.73519163763066,35.35805947368354 48.08362369337979,40.0664537968827 48.43205574912892,41.41479618735872 48.78048780487805,43.33521383142478 49.12891986062718,43.47211950525377 49.47735191637631,43.79861494571914 49.825783972125436,44.96197649626381 50.174216027874564,46.43154294045382 50.5226480836237,46.250705230787126 50.87108013937283,42.99778628489429 51.21951219512196,43.3826101968303 51.567944250871086,44.227447730449256 51.916376306620215,35.712266616249494 52.264808362369344,28.590739633982594 52.61324041811847,31.41412363808935 52.9616724738676,35.639077696125185 53.31010452961673,36.3605574942635 53.65853658536586,39.41088101620915 54.00696864111499,37.88976308474893 54.355400696864116,38.05358612923404 54.703832752613245,39.87877304339409 55.052264808362374,37.21574429667426 55.4006968641115,32.89526949851847 55.74912891986063,35.64665416017159 56.09756097560976,31.43948820705444 56.44599303135889,33.321432090781286 56.79442508710802,32.60647504518103 57.142857142857146,33.907433478804336 57.491289198606275,35.45211666370801 57.8397212543554,38.533147367663936 58.18815331010453,38.60439825064731 58.53658536585366,43.24544131996638 58.88501742160279,46.912830922254834 59.23344947735192,45.15147400354622 59.58188153310105,45.858201244174445 59.930313588850176,42.77945842705408 60.278745644599304,39.67036423834256 60.62717770034843,39.94134498125842 60.97560975609756,39.30285440575189 61.3240418118467,36.75857537407059 61.672473867595826,34.873433535072365 62.020905923344955,35.401441428744945 62.369337979094084,35.943359805063835 62.71777003484321,27.516758119193085 63.06620209059234,30.38074589885359 63.41463414634147,25.022816312538993 63.7630662020906,27.625922301429 64.11149825783973,27.298753380742554 64.45993031358886,31.168284980365996 64.80836236933798,28.071663033129695 65.15679442508711,31.392724549193815 65.50522648083624,28.01590661057689 65.85365853658537,33.015061708835646 66.2020905923345,28.693590101975104 66.55052264808363,27.597524078068204 66.89895470383276,27.15141610656937 67.24738675958189,26.713029165655243 67.59581881533101,23.671042050514146 67.94425087108014,21.205888443649386 68.29268292682927,30.260995826987326 68.6411149825784,30.25942204197233 68.98954703832753,34.06018792575624 69.33797909407666,30.809836752362983 69.68641114982579,30.885422179158667 70.03484320557492,27.726217167564513 70.38327526132404,27.50899449224761 70.73170731707317,16.7718587846512 71.0801393728223,24.198865501834277 71.42857142857143,27.666527893147247 71.77700348432056,25.864760943149648 72.12543554006969,26.212525768478528 72.47386759581882,26.82860429108878 72.82229965156795,25.6902049973379 73.17073170731707,28.2351414313448 73.5191637630662,31.12929309359717 73.86759581881533,33.59092421654867 74.21602787456446,29.39961996187064 74.56445993031359,27.90285768844474 74.91289198606272,26.755937009991158 75.26132404181185,26.806164437578374 75.60975609756098,22.490784081416876 75.9581881533101,22.805215252741277 76.30662020905923,20.615398216586783 76.65505226480836,19.664674121560083 77.00348432055749,19.043598945156248 77.35191637630662,19.705979357891422 77.70034843205575,21.948986167405977 78.04878048780489,23.312633160144173 78.39721254355402,24.050503579870025 78.74564459930315,27.387629076227824 79.09407665505228,26.777391806140542 79.4425087108014,20.960825666300693 79.79094076655053,22.41869374115599 80.13937282229966,20.74263515390456 80.48780487804879,19.28889640643348 80.83623693379792,22.146863407611377 81.18466898954705,20.5217153203087 81.53310104529618,17.43055706356681 81.8815331010453,13.374135205004123 82.22996515679444,8.028760087051452 82.57839721254356,17.125294461708208 82.92682926829269,15.076639682450576 83.27526132404182,18.248696778403314 83.62369337979095,23.60755412874795 83.97212543554008,21.351041272227008 84.32055749128921,25.90566556998722 84.66898954703834,25.985650174559865 85.01742160278746,22.277341167507444 85.3658536585366,24.43948670429792 85.71428571428572,22.313499140999127 86.06271777003485,17.124763198975444 86.41114982578398,17.163536136623847 86.75958188153311,17.913017591266595 87.10801393728224,18.59199237670481 87.45644599303137,14.523783994789525 87.8048780487805,12.856314940034792 88.15331010452962,11.759966457378724 88.50174216027875,15.11148910334613 88.85017421602788,12.070239557777157 89.19860627177701,12.923925107449847 89.54703832752614,7.621651170373994 89.89547038327527,8.911155750312389 90.2439024390244,5.148825132868026 90.59233449477352,9.154024372074616 90.94076655052265,9.73850867480634 91.28919860627178,10.855938610187138 91.63763066202091,13.213529114926075 91.98606271777004,15.428990718446485 92.33449477351917,14.75744049257139 92.6829268292683,13.307809826184794 93.03135888501743,15.978428945558463 93.37979094076655,14.42010446393843 93.72822299651568,9.291140687958304 94.07665505226481,10.704331154823663 94.42508710801394,11.612844499685778 94.77351916376307,10.514188973616214 95.1219512195122,9.760848053392209 95.47038327526133,9.673238234024282 95.81881533101046,7.045733907518624 96.16724738675958,6.9030646752812 96.51567944250871,10.325877882463402 96.86411149825784,8.171092266819642 97.21254355400697,7.859482622099421 97.5609756097561,5.876536484358127 97.90940766550523,6.126782336338422 98.25783972125436,6.943339030452549 98.60627177700349,3.819453208950179 98.95470383275261,0 99.30313588850174,4.66418048693032 99.65156794425087,4.62619108156332 100,9.018797739751449" stroke="#00A68C" stroke-linecap="round" stroke-width="1.4" fill="none" vector-effect="non-scaling-stroke"></polyline></svg>