<svg xmlns="http://www.w3.org/2000/svg" version="1.1" viewBox="0 0 100 100" preserveAspectRatio="none" class="css-1aadux1"><polyline points=" 0,31.078519950408463 0.6666666666666666,32.863751147529 1.3333333333333333,32.908180139195 2,31.711455311068974 2.6666666666666665,31.430020685874496 3.333333333333333,32.768642974533094 4,31.05094156853052 4.666666666666666,31.343976033263246 5.333333333333333,33.139477422349145 6,31.299980624161137 6.666666666666666,33.2537628614338 7.333333333333333,33.853525412944805 8,29.976964663418897 8.666666666666666,28.622133362823348 9.333333333333332,31.26251498441384 10,31.624572804547654 10.666666666666666,32.37955781952999 11.333333333333332,33.718985149111944 12,32.49507297064601 12.666666666666666,33.49998728057962 13.333333333333332,31.937026425349018 14,30.042550090851577 14.666666666666666,28.717277206519213 15.333333333333332,25.960628518483077 16,30.317120258457635 16.666666666666664,28.279693772683387 17.333333333333332,30.916324687119186 18,27.45940798552823 18.666666666666664,29.022348979808953 19.333333333333332,30.46717178599306 20,28.39622722813081 20.666666666666664,31.683686595635095 21.333333333333332,29.426626844711905 22,32.798183240219785 22.666666666666664,27.941853923829214 23.333333333333332,29.915646371117205 24,29.109175749229323 24.666666666666664,31.37569404652794 25.333333333333332,32.98931310375053 26,35.41463513016073 26.666666666666664,33.00582391868967 27.333333333333332,33.81816170086803 28,33.34336019286056 28.666666666666664,31.4302226535401 29.333333333333332,31.806866639131187 30,33.77869970246718 30.666666666666664,31.677410282235257 31.333333333333332,30.4400645208776 32,26.86774305000108 32.666666666666664,32.93353866210013 33.33333333333333,28.39411277003049 34,28.832400690986077 34.666666666666664,28.14095889529817 35.33333333333333,34.57150385104151 36,33.074228708351754 36.666666666666664,34.57627109352384 37.33333333333333,33.89630296951374 38,0.49060301121714645 38.666666666666664,1.480247863981674 39.33333333333333,0.7186090946298123 40,0.6179642972619916 40.666666666666664,0.7986272406119355 41.33333333333333,0 42,2.1791230665356665 42.666666666666664,6.931996201954632 43.33333333333333,8.706626750204833 44,9.73954302833691 44.666666666666664,10.010713211227 45.33333333333333,12.23672805703599 46,13.786677798245464 46.666666666666664,20.693195047963414 47.33333333333333,30.83990712199315 48,38.25751549037042 48.666666666666664,35.50450139688769 49.33333333333333,25.78924858960437 50,37.44404537305029 50.666666666666664,40.721437465133015 51.33333333333333,41.1024863236033 52,53.14078449637806 52.666666666666664,46.731546777528074 53.33333333333333,37.5462760417829 54,36.24609566046091 54.666666666666664,39.96782309419717 55.33333333333333,39.83628249185427 56,40.58083940941878 56.666666666666664,38.2428442513279 57.33333333333333,37.966672167751334 58,38.46578582739244 58.666666666666664,38.36552156370484 59.33333333333333,43.35454879758702 60,44.33790294904442 60.666666666666664,36.70541656504054 61.33333333333333,40.25526265734697 62,43.849105201538805 62.666666666666664,44.0225933019978 63.33333333333333,41.47867407067064 64,45.53701702154682 64.66666666666666,46.50832234251049 65.33333333333333,42.63742082484308 66,43.94579968327349 66.66666666666666,41.861245802742275 67.33333333333333,44.78599320332018 68,48.17048875174523 68.66666666666666,48.43436147869404 69.33333333333333,50.279085775543145 70,54.388052769723 70.66666666666666,48.006010009347555 71.33333333333333,36.86502836316007 72,44.18818147915241 72.66666666666666,36.020539976153934 73.33333333333333,26.343030624104784 74,40.39944809922259 74.66666666666666,30.851863577741995 75.33333333333333,32.45088392015484 76,32.26543783663051 76.66666666666666,38.453733364493836 77.33333333333333,55.25518374648595 78,40.7279791716017 78.66666666666666,43.559139622825306 79.33333333333333,47.80224809221521 80,39.82223086104612 80.66666666666666,44.72971734536385 81.33333333333333,51.559380551166875 82,36.17716588610459 82.66666666666666,100 83.33333333333333,51.574138330792664 84,52.43765134214171 84.66666666666666,58.703807561947194 85.33333333333333,74.26733775692458 86,44.067901504996975 86.66666666666666,36.28108812541363 87.33333333333333,35.30900634220315 88,32.21861948902358 88.66666666666666,37.555957440878295 89.33333333333333,32.21212408777663 90,33.941795947729105 90.66666666666666,33.05683218970424 91.33333333333333,37.44224053340021 92,47.78855164340282 92.66666666666666,30.055898453595034 93.33333333333333,36.99589113715067 94,35.174019187016086 94.66666666666666,36.6540335027409 95.33333333333333,38.57094082850805 96,44.633266080190616 96.66666666666666,39.36705211169945 97.33333333333333,39.315677913164706 98,53.04765634729477 98.66666666666666,42.61754350200071 99.33333333333333,42.208514990361 100,36.21770541073238" stroke="#D9475A" stroke-linecap="round" stroke-width="1.4" fill="none" vector-effect="non-scaling-stroke"></polyline></svg>