<svg xmlns="http://www.w3.org/2000/svg" version="1.1" viewBox="0 0 100 100" preserveAspectRatio="none" class="css-1aadux1"><polyline points=" 0,87.20838463282661 0.6666666666666666,100 1.3333333333333333,92.4014567516084 2,89.30076841584827 2.6666666666666665,87.84927384132902 3.333333333333333,85.35304624619478 4,84.57734311940969 4.666666666666666,91.03831988986659 5.333333333333333,91.15439161124239 6,93.53062873779605 6.666666666666666,97.67378443548326 7.333333333333333,99.3470245056853 8,93.55924465498346 8.666666666666666,92.31567270191134 9.333333333333332,92.07408511169214 10,88.56137717119056 10.666666666666666,90.34816485056977 11.333333333333332,85.53508069733772 12,86.96706517569854 12.666666666666666,87.35152702615501 13.333333333333332,84.10179620485674 14,83.56343368629369 14.666666666666666,85.3706146594536 15.333333333333332,86.48790895702248 16,82.41993871800447 16.666666666666664,84.52588514235033 17.333333333333332,83.92437507774191 18,84.55495016548257 18.666666666666664,79.49067690962767 19.333333333333332,80.62588167285054 20,81.62784890044122 20.666666666666664,81.09152135531497 21.333333333333332,81.25125400543862 22,80.787942532522 22.666666666666664,82.53028094443397 23.333333333333332,81.96085965832374 24,82.14935589372844 24.666666666666664,83.84030253081015 25.333333333333332,86.79556925716108 26,86.78337469270635 26.666666666666664,85.53990111447959 27.333333333333332,86.69152583053902 28,86.03621769909431 28.666666666666664,86.7027517453719 29.333333333333332,89.58539184828977 30,90.22685476734763 30.666666666666664,89.67587281310591 31.333333333333332,87.03366238313136 32,86.03151194818598 32.666666666666664,87.1223177565403 33.33333333333333,85.07428654032178 34,86.75809624447153 34.666666666666664,88.14259513674794 35.33333333333333,92.27512242670876 36,90.16320347490152 36.666666666666664,89.87156887437496 37.33333333333333,88.89296207317759 38,86.58514012327488 38.666666666666664,90.08220167495193 39.33333333333333,91.00327087283787 40,93.74802070444252 40.666666666666664,94.27904798934546 41.33333333333333,94.38686087314582 42,88.63007877500512 42.666666666666664,86.2065498866425 43.33333333333333,75.51887630709581 44,70.97661434729673 44.666666666666664,70.31683707392227 45.33333333333333,69.23645688841385 46,63.65375679779139 46.666666666666664,64.03222469089746 47.33333333333333,64.51922502243035 48,64.24702874117318 48.666666666666664,65.02553482496526 49.33333333333333,57.66187526493176 50,58.28013581861885 50.666666666666664,61.61356737177493 51.33333333333333,60.64943312155434 52,58.38097805617821 52.666666666666664,63.76866995594193 53.33333333333333,61.261212402057126 54,59.48676829712193 54.666666666666664,60.54824543675086 55.33333333333333,62.30656729387659 56,61.76014336774515 56.666666666666664,57.479121599545245 57.33333333333333,60.200331592218774 58,65.82151737752672 58.666666666666664,65.2013674501151 59.33333333333333,63.15997202032413 60,58.69695152874414 60.666666666666664,57.82580392471482 61.33333333333333,58.519875746438025 62,58.331475281347174 62.666666666666664,56.84951529107746 63.33333333333333,61.88558667012792 64,61.17591644529667 64.66666666666666,64.1656950662261 65.33333333333333,60.358482206444755 66,62.91716040979188 66.66666666666666,63.66597926437894 67.33333333333333,56.908180999080955 68,50.28570571671276 68.66666666666666,50.82395755383424 69.33333333333333,45.632137633180456 70,56.35998302085216 70.66666666666666,51.25873937055201 71.33333333333333,50.809290094722755 72,47.63906246000214 72.66666666666666,37.95521553774884 73.33333333333333,65.12937117675862 74,62.833518899493946 74.66666666666666,67.81375888322214 75.33333333333333,59.590168311464424 76,52.93334201820844 76.66666666666666,54.16981481519152 77.33333333333333,51.928722071063326 78,41.76441243416661 78.66666666666666,46.696470850429705 79.33333333333333,43.134986982618884 80,32.710846794850994 80.66666666666666,21.265863576311105 81.33333333333333,14.46198884263616 82,9.094054347409838 82.66666666666666,6.035418655578923 83.33333333333333,0.5270588070336828 84,8.57256982641232 84.66666666666666,9.724737916212987 85.33333333333333,4.258815659299742 86,0 86.66666666666666,20.17743447314882 87.33333333333333,25.948594126687752 88,27.792990032942868 88.66666666666666,19.60691198269194 89.33333333333333,18.987318402949228 90,30.004972922941704 90.66666666666666,36.00356195326525 91.33333333333333,33.40271923345837 92,23.54230652952681 92.66666666666666,22.95612540911779 93.33333333333333,21.520450341672543 94,22.068790987235545 94.66666666666666,25.745578360802384 95.33333333333333,25.090506091358293 96,27.946588235062364 96.66666666666666,19.51595439804001 97.33333333333333,14.900594930103935 98,14.111810866434666 98.66666666666666,8.669312671159275 99.33333333333333,11.93769944475116 100,13.494767754390438" stroke="#00A68C" stroke-linecap="round" stroke-width="1.4" fill="none" vector-effect="non-scaling-stroke"></polyline></svg>