<svg xmlns="http://www.w3.org/2000/svg" version="1.1" viewBox="0 0 100 100" preserveAspectRatio="none" class="css-1aadux1"><polyline points=" 0,88.23727070250588 0.6666666666666666,100 1.3333333333333333,90.60887758043332 2,84.81150011389971 2.6666666666666665,85.80722987886554 3.333333333333333,82.12140558244892 4,81.35563754219054 4.666666666666666,91.35027601431683 5.333333333333333,90.33874336038865 6,88.31504805867587 6.666666666666666,92.60353489880788 7.333333333333333,86.34495625172092 8,80.22385339871816 8.666666666666666,75.31961611557107 9.333333333333332,77.06837869477702 10,70.53224813343225 10.666666666666666,73.4635641467969 11.333333333333332,69.74884763816496 12,73.34717609239554 12.666666666666666,73.70391274745228 13.333333333333332,74.36709403239124 14,74.29861275883312 14.666666666666666,78.82158854978962 15.333333333333332,77.039129579736 16,70.83038009672586 16.666666666666664,72.1030036975435 17.333333333333332,70.4520733833166 18,71.72612393400624 18.666666666666664,67.52046553009568 19.333333333333332,69.14362803665173 20,66.24008802882915 20.666666666666664,66.75268330376184 21.333333333333332,67.08341403708914 22,68.00848601133117 22.666666666666664,69.45439235385274 23.333333333333332,66.8080310167357 24,66.07485427774583 24.666666666666664,68.79181913909896 25.333333333333332,73.4701755650932 26,69.03969595324148 26.666666666666664,67.79086408384066 27.333333333333332,61.115260233970055 28,63.45923900188126 28.666666666666664,59.112725783673184 29.333333333333332,63.11773741169682 30,67.99788499352977 30.666666666666664,66.95990526799741 31.333333333333332,60.12339588215723 32,60.25218459971062 32.666666666666664,62.00988307402922 33.33333333333333,62.735221879126094 34,61.557002689300425 34.666666666666664,61.121734824332606 35.33333333333333,66.59106675674937 36,64.25286138398201 36.666666666666664,65.5794805922119 37.33333333333333,66.60188002418231 38,65.45010278560964 38.666666666666664,70.54471235822365 39.33333333333333,70.73864864636388 40,76.86685583750464 40.666666666666664,78.9878721933944 41.33333333333333,79.43071081920773 42,74.99992206707856 42.666666666666664,65.88206879359868 43.33333333333333,57.19855396087467 44,51.29072911950586 44.666666666666664,47.45684826936656 45.33333333333333,50.69400946719879 46,43.7351837069796 46.666666666666664,49.21292931457334 47.33333333333333,47.24438765046168 48,46.40904133030421 48.666666666666664,51.73937340520222 49.33333333333333,45.00111320915657 50,40.572701321168346 50.666666666666664,49.30346915083666 51.33333333333333,48.11002909894893 52,45.13575261508598 52.666666666666664,49.399402848074715 53.33333333333333,45.19546076358495 54,41.54100982624167 54.666666666666664,37.52521965290916 55.33333333333333,39.36328823925195 56,44.71521039189855 56.666666666666664,45.320611336307095 57.33333333333333,48.13681201760265 58,52.36721753714054 58.666666666666664,51.68880128238342 59.33333333333333,46.15853309884619 60,46.23964283985623 60.666666666666664,43.83713080666595 61.33333333333333,45.551266212404684 62,45.2685162856569 62.666666666666664,49.802739243562044 63.33333333333333,51.37871235364418 64,52.367674603965156 64.66666666666666,55.0673941157291 65.33333333333333,48.570426103391085 66,50.7441262444427 66.66666666666666,51.70323254967134 67.33333333333333,45.35801500205019 68,38.75068114268042 68.66666666666666,31.383172429999902 69.33333333333333,27.765547939350867 70,39.07814830261097 70.66666666666666,35.902897609200735 71.33333333333333,23.688918872024843 72,20.055947590055524 72.66666666666666,6.74318293130753 73.33333333333333,51.26164219709195 74,51.549323760852005 74.66666666666666,57.5124502175614 75.33333333333333,47.4372813162113 76,37.83772432358489 76.66666666666666,34.86501988027662 77.33333333333333,23.45664444314211 78,26.25751105428469 78.66666666666666,31.911820621175153 79.33333333333333,30.03804195243805 80,15.257744859380566 80.66666666666666,12.493904601677272 81.33333333333333,14.931019623605835 82,6.315583487595788 82.66666666666666,2.3012463243554464 83.33333333333333,0.47445987972405135 84,6.704846617003668 84.66666666666666,9.474021526917113 85.33333333333333,0 86,3.0534897229215545 86.66666666666666,19.27152918898109 87.33333333333333,28.8521955372304 88,30.40615450746695 88.66666666666666,22.07343141276135 89.33333333333333,20.285316214028114 90,34.864964599733725 90.66666666666666,43.77846258672476 91.33333333333333,36.6675866010838 92,27.33152250615329 92.66666666666666,27.330423839739623 93.33333333333333,28.87262794763396 94,24.67133976211221 94.66666666666666,24.208457467248877 95.33333333333333,19.594126176665554 96,20.82732443533935 96.66666666666666,12.340300839948952 97.33333333333333,17.630061604503553 98,16.805816560825633 98.66666666666666,12.579340685204002 99.33333333333333,14.22612055425212 100,19.97441034846051" stroke="#00A68C" stroke-linecap="round" stroke-width="1.4" fill="none" vector-effect="non-scaling-stroke"></polyline></svg>