<svg xmlns="http://www.w3.org/2000/svg" version="1.1" viewBox="0 0 100 100" preserveAspectRatio="none" class="css-1aadux1"><polyline points=" 0,91.48344994706252 0.6666666666666666,100 1.3333333333333333,95.77986848614498 2,93.4097257514083 2.6666666666666665,93.75001711860355 3.333333333333333,94.01116763518948 4,93.73010616344257 4.666666666666666,97.58136407253697 5.333333333333333,97.7414483779798 6,97.86430842122606 6.666666666666666,98.92426481795835 7.333333333333333,97.93811236249942 8,95.63595978584179 8.666666666666666,94.2285262265134 9.333333333333332,94.15183030317368 10,91.21302351906306 10.666666666666666,92.66404570033822 11.333333333333332,90.0425576297145 12,91.42288309161444 12.666666666666666,91.56843904634067 13.333333333333332,90.38204161853339 14,90.90689680032142 14.666666666666666,91.68454350415979 15.333333333333332,90.5750888611848 16,88.09313792728159 16.666666666666664,88.32298004097818 17.333333333333332,87.0511211376835 18,85.93395138465108 18.666666666666664,85.04181512549488 19.333333333333332,86.08325242931441 20,87.95748780118274 20.666666666666664,87.89638524934368 21.333333333333332,88.38427761401107 22,88.12228053973098 22.666666666666664,89.21164900177804 23.333333333333332,88.75181193252573 24,89.32161585596498 24.666666666666664,89.6433273090084 25.333333333333332,91.12285049060041 26,91.27704710192245 26.666666666666664,89.89427603551046 27.333333333333332,89.19765266877148 28,90.36151586953086 28.666666666666664,87.33689686473052 29.333333333333332,89.38923419198227 30,89.38617543202909 30.666666666666664,89.20319655474555 31.333333333333332,87.81778938390823 32,87.22174846645242 32.666666666666664,87.97832734538711 33.33333333333333,87.9402370713959 34,89.01786195316001 34.666666666666664,87.71147820283234 35.33333333333333,89.34378336562594 36,89.64557957580953 36.666666666666664,88.60584032840725 37.33333333333333,87.3276471358887 38,86.57073702097455 38.666666666666664,88.44591726915792 39.33333333333333,87.72938409329723 40,91.99021266335698 40.666666666666664,92.90807274434836 41.33333333333333,94.97505967840027 42,92.02227526138722 42.666666666666664,90.1867583339546 43.33333333333333,87.08646436411017 44,78.6010955066569 44.666666666666664,70.51405517379948 45.33333333333333,72.79056610620916 46,71.45730548407396 46.666666666666664,73.42084691579714 47.33333333333333,71.55629910027628 48,70.33225441456062 48.666666666666664,71.12230094850653 49.33333333333333,67.85036712137172 50,66.27860486210695 50.666666666666664,69.16014972379111 51.33333333333333,71.09633297502519 52,67.79816587968446 52.666666666666664,68.43576939351877 53.33333333333333,65.52044769270714 54,65.60733606838144 54.666666666666664,66.55295739968113 55.33333333333333,66.07450662589576 56,69.47599136920638 56.666666666666664,69.59441200250566 57.33333333333333,72.39190102861166 58,77.0166128969493 58.666666666666664,77.2319839032063 59.33333333333333,77.46388220486554 60,75.61261297586755 60.666666666666664,72.99925301357904 61.33333333333333,72.75983867518673 62,74.31549430241769 62.666666666666664,74.28107338481735 63.33333333333333,76.36879942667628 64,74.92325365487967 64.66666666666666,76.29036707038401 65.33333333333333,73.65283004092859 66,73.42867943332 66.66666666666666,73.2789256416478 67.33333333333333,69.84511299652878 68,69.08211491503991 68.66666666666666,65.83758616415872 69.33333333333333,58.698273847080465 70,65.9328467723899 70.66666666666666,63.415683769309034 71.33333333333333,66.28867986354317 72,61.348971139013194 72.66666666666666,52.60917331737131 73.33333333333333,63.67329204550559 74,61.68159798007042 74.66666666666666,67.6508787475286 75.33333333333333,59.08593266186319 76,50.83318779507265 76.66666666666666,49.88123353175056 77.33333333333333,42.35517624683879 78,31.882161849215024 78.66666666666666,37.736358390158784 79.33333333333333,31.100206923395746 80,33.688200966926246 80.66666666666666,31.609894565191127 81.33333333333333,31.732476059117985 82,11.306091518048362 82.66666666666666,17.497553319537857 83.33333333333333,17.700636463778082 84,16.40769719546516 84.66666666666666,12.193676932824445 85.33333333333333,4.893097329632738 86,8.669279206515355 86.66666666666666,18.162252894252305 87.33333333333333,20.63647224068876 88,23.863941606124456 88.66666666666666,14.749608799108472 89.33333333333333,12.265448541306412 90,20.85392364818381 90.66666666666666,28.44987597107847 91.33333333333333,21.39381347694183 92,6.683186749497622 92.66666666666666,6.042484344519764 93.33333333333333,1.7170584369055888 94,0 94.66666666666666,3.6311539377014412 95.33333333333333,5.130349324573416 96,9.649462628497872 96.66666666666666,5.865520332740331 97.33333333333333,2.539172939533458 98,3.8286103955546054 98.66666666666666,0.6948463863123493 99.33333333333333,1.4359126634103916 100,8.38585151177395" stroke="#00A68C" stroke-linecap="round" stroke-width="1.4" fill="none" vector-effect="non-scaling-stroke"></polyline></svg>