<svg xmlns="http://www.w3.org/2000/svg" version="1.1" viewBox="0 0 100 100" preserveAspectRatio="none" class="css-1aadux1"><polyline points=" 0,63.58078543496525 0.6666666666666666,51.762255423503554 1.3333333333333333,51.72460111895583 2,53.764757163241065 2.6666666666666665,55.59289559802295 3.333333333333333,55.305888704732105 4,51.185674865687545 4.666666666666666,30.546694875214385 5.333333333333333,30.786450137324408 6,31.081319219006232 6.666666666666666,26.545315488650346 7.333333333333333,25.693447369979054 8,32.08481049742787 8.666666666666666,28.86563233604194 9.333333333333332,33.408081289467646 10,29.19091224803691 10.666666666666666,28.934547890101484 11.333333333333332,30.369624541657743 12,36.05001574484007 12.666666666666666,40.32424763937844 13.333333333333332,41.371594330976855 14,47.8352399603861 14.666666666666666,51.88249989868989 15.333333333333332,54.096010908077915 16,62.46864571594912 16.666666666666664,66.20249407503205 17.333333333333332,65.37719028723757 18,60.52799796094314 18.666666666666664,59.08580060735853 19.333333333333332,63.330177333573204 20,65.85119161980467 20.666666666666664,61.884065223841475 21.333333333333332,66.65292713577207 22,64.95278559342258 22.666666666666664,63.24950281596173 23.333333333333332,64.9941036296384 24,67.08900418052565 24.666666666666664,71.05922927448796 25.333333333333332,65.11761830359012 26,69.55224363793782 26.666666666666664,65.32789423106574 27.333333333333332,74.1062595846552 28,69.83395376164269 28.666666666666664,69.10221601038182 29.333333333333332,71.42812598631349 30,71.39637054004434 30.666666666666664,71.6193387806643 31.333333333333332,72.57069893859494 32,76.71505245449272 32.666666666666664,78.31196146899786 33.33333333333333,87.59979585277779 34,71.87266158759226 34.666666666666664,100 35.33333333333333,98.13432348987428 36,96.8111827795002 36.666666666666664,85.16298092474739 37.33333333333333,87.55703092816096 38,82.52882953856955 38.666666666666664,67.6848071126202 39.33333333333333,69.28881719775286 40,63.641676065721654 40.666666666666664,60.90040877795612 41.33333333333333,60.380801387596975 42,63.31994152951993 42.666666666666664,63.821902910133545 43.33333333333333,59.64399953204168 44,64.38179263238516 44.666666666666664,69.94649754024118 45.33333333333333,61.54400562325499 46,57.230767049747286 46.666666666666664,74.75531019131918 47.33333333333333,65.48728955419817 48,42.741920108063994 48.666666666666664,49.74491685652694 49.33333333333333,45.8470426455979 50,32.27362266774814 50.666666666666664,22.942315094704 51.33333333333333,43.40349414848781 52,41.68965819278323 52.666666666666664,33.15774464229828 53.33333333333333,33.51500328939491 54,45.17844879879653 54.666666666666664,41.93415937414224 55.33333333333333,35.05995352160912 56,26.416242597918924 56.666666666666664,39.22715313265726 57.33333333333333,42.778159368931966 58,20.409356377472847 58.666666666666664,24.335112359776943 59.33333333333333,13.918181712908378 60,40.544128434766726 60.666666666666664,26.450268955610895 61.33333333333333,30.994819528254453 62,20.67459188387987 62.666666666666664,29.577504728846463 63.33333333333333,34.45403672323492 64,39.27117480346909 64.66666666666666,47.28555409192258 65.33333333333333,47.03134485889823 66,51.78359586389713 66.66666666666666,55.001972734017606 67.33333333333333,53.77712409762677 68,63.98383912196826 68.66666666666666,60.24767435144043 69.33333333333333,46.89843180037331 70,39.02880412452604 70.66666666666666,45.25495015532578 71.33333333333333,33.727673988355846 72,14.955191009382276 72.66666666666666,50.66760327312843 73.33333333333333,13.863265398263508 74,7.906415151455931 74.66666666666666,6.505347557112046 75.33333333333333,15.320889303930173 76,10.597017229813673 76.66666666666666,6.457510154882357 77.33333333333333,20.706773712184372 78,42.24311107224887 78.66666666666666,23.740163314991776 79.33333333333333,20.54655394986885 80,31.33308814207966 80.66666666666666,86.33814502380443 81.33333333333333,15.620618308575615 82,61.4443559054878 82.66666666666666,63.61816631439956 83.33333333333333,61.718105044495786 84,34.73292069599887 84.66666666666666,50.47208924398928 85.33333333333333,0 86,6.819316325537855 86.66666666666666,77.23354539208847 87.33333333333333,69.54427721276089 88,59.95227332357223 88.66666666666666,60.60730363798212 89.33333333333333,40.35021237857838 90,43.94929703001712 90.66666666666666,56.43445532836259 91.33333333333333,47.232059106052446 92,63.26498362430512 92.66666666666666,59.45913610305971 93.33333333333333,62.192903160004185 94,30.326359159289723 94.66666666666666,66.30722368204262 95.33333333333333,49.099131623728475 96,24.32672774494668 96.66666666666666,43.25339120589074 97.33333333333333,51.35816970225635 98,41.61559530396018 98.66666666666666,35.81659730083118 99.33333333333333,51.626764887554465 100,58.19941552290631" stroke="#00A68C" stroke-linecap="round" stroke-width="1.4" fill="none" vector-effect="non-scaling-stroke"></polyline></svg>