<svg xmlns="http://www.w3.org/2000/svg" version="1.1" viewBox="0 0 100 100" preserveAspectRatio="none" class="css-1aadux1"><polyline points=" 0,72.21366323423932 0.6666666666666666,88.62835120611088 1.3333333333333333,78.67536250612645 2,77.6410171084977 2.6666666666666665,78.4111144243566 3.333333333333333,78.83121896710334 4,77.83110768417805 4.666666666666666,81.52823527775112 5.333333333333333,83.73655305163898 6,84.37247820691628 6.666666666666666,90.51320007560142 7.333333333333333,88.14734120423586 8,83.72701539045536 8.666666666666666,83.25003944951045 9.333333333333332,85.90321730069249 10,84.42537843176127 10.666666666666666,90.72993948447758 11.333333333333332,87.0999077274926 12,93.15507777558696 12.666666666666666,93.13616707528404 13.333333333333332,93.16958215248461 14,95.91227083631196 14.666666666666666,100 15.333333333333332,97.76113529904262 16,95.23804802073634 16.666666666666664,99.38453522863321 17.333333333333332,98.11695180459375 18,97.06243071669199 18.666666666666664,94.7734850796293 19.333333333333332,94.25204607640862 20,94.38106243522942 20.666666666666664,92.49340108707877 21.333333333333332,92.703457399591 22,92.08947010746792 22.666666666666664,91.67120856351916 23.333333333333332,92.01837426678142 24,91.47119058368062 24.666666666666664,91.05473767056112 25.333333333333332,94.25235237035966 26,97.54115292559416 26.666666666666664,95.61930979730614 27.333333333333332,95.0662557982233 28,94.59019091264621 28.666666666666664,91.85273276573845 29.333333333333332,91.99298103723171 30,95.18119037393551 30.666666666666664,94.64540975882915 31.333333333333332,91.23974424924661 32,96.13578399223319 32.666666666666664,95.1147231583641 33.33333333333333,97.21866004376159 34,95.11550229195761 34.666666666666664,97.92427351589109 35.33333333333333,97.73681095099626 36,95.17523062320909 36.666666666666664,91.99348326946003 37.33333333333333,91.32535567736566 38,91.0891171319752 38.666666666666664,92.22134959750294 39.33333333333333,88.90516832824385 40,89.96894771625259 40.666666666666664,89.87395636161816 41.33333333333333,88.73168543633916 42,79.45647911597743 42.666666666666664,77.30675491410872 43.33333333333333,72.70433632754394 44,66.30324792914183 44.666666666666664,66.161411925508 45.33333333333333,62.18423899546786 46,58.52396612598496 46.666666666666664,60.12074522346639 47.33333333333333,59.001999314857215 48,58.84806585506576 48.666666666666664,60.117304478912025 49.33333333333333,53.338350547041415 50,46.82905438588095 50.666666666666664,50.99514310449279 51.33333333333333,44.612152026720075 52,43.04856280791228 52.666666666666664,44.05015968264087 53.33333333333333,42.60820313746305 54,37.056986871723716 54.666666666666664,37.709398120807904 55.33333333333333,32.961489777611234 56,31.53486190077139 56.666666666666664,26.08327849992311 57.33333333333333,28.593430909263674 58,26.11573481613013 58.666666666666664,28.101109509050303 59.33333333333333,26.191250699356246 60,25.794548493546344 60.666666666666664,19.42816855809022 61.33333333333333,12.91391222499361 62,11.679806987684742 62.666666666666664,11.815371469183873 63.33333333333333,13.812994065380181 64,8.437626953955075 64.66666666666666,5.672747056192719 65.33333333333333,7.242666919799689 66,7.493957014456669 66.66666666666666,10.1675613332132 67.33333333333333,13.712583737405055 68,15.89524115080738 68.66666666666666,10.380962547105156 69.33333333333333,2.9788035343889305 70,5.580761767535634 70.66666666666666,1.789229552489644 71.33333333333333,3.875127859331826 72,1.1579827328073407 72.66666666666666,0 73.33333333333333,19.102937522679383 74,24.255370854955814 74.66666666666666,27.061526002074288 75.33333333333333,26.03146558303365 76,24.784898043579744 76.66666666666666,24.95011020830077 77.33333333333333,19.70245228252267 78,24.61945251583289 78.66666666666666,19.987190280437545 79.33333333333333,15.719262110954958 80,12.185109593065675 80.66666666666666,12.041680432928544 81.33333333333333,6.936853233026497 82,6.026880766931868 82.66666666666666,8.179753636074864 83.33333333333333,16.539941034531992 84,16.629283045415235 84.66666666666666,23.90994590497337 85.33333333333333,16.441403165374695 86,18.94487457280559 86.66666666666666,31.608213851860526 87.33333333333333,40.37405718824978 88,39.03083183539325 88.66666666666666,35.65809478266485 89.33333333333333,34.98482883800956 90,41.440532435848844 90.66666666666666,48.39188459062227 91.33333333333333,48.336135499370414 92,41.78190366360055 92.66666666666666,42.831997026478795 93.33333333333333,39.84945889990231 94,38.6484782289093 94.66666666666666,39.058993815866614 95.33333333333333,39.43488316403516 96,39.530843866021925 96.66666666666666,38.95881032108133 97.33333333333333,40.53942257457339 98,39.925994946084195 98.66666666666666,36.86510486941709 99.33333333333333,38.795748642300765 100,43.68485643612258" stroke="#00A68C" stroke-linecap="round" stroke-width="1.4" fill="none" vector-effect="non-scaling-stroke"></polyline></svg>